<svg version="1.1" id="Layer_1" xmlns="http://www.w3.org/2000/svg" xmlns:xlink="http://www.w3.org/1999/xlink" x="0px" y="0px"
	 width="100%" viewBox="0 0 512 512" enable-background="new 0 0 512 512" xml:space="preserve">
<path fill="#020202" opacity="1.000000" stroke="none" 
	d="
M513.000000,212.000000 
	C513.000000,298.354218 513.000000,384.708466 512.624817,471.657776 
	C510.124786,485.078461 503.368744,495.372833 493.145508,502.758850 
	C486.893890,507.275543 479.100800,509.658661 472.000000,513.000000 
	C328.979095,513.000000 185.958206,513.000000 42.342255,512.624817 
	C28.921570,510.124817 18.627213,503.368713 11.241164,493.145538 
	C6.724498,486.893890 4.341343,479.100800 1.000002,472.000000 
	C1.000000,385.645782 1.000000,299.291534 1.331326,212.396454 
	C10.856570,204.003647 19.917021,195.988403 29.276865,188.339539 
	C42.105446,177.855988 55.068211,167.529480 68.201530,157.432297 
	C70.697433,155.513397 71.032608,153.622864 71.029877,150.946167 
	C70.983307,105.333382 71.084480,59.720142 70.878586,14.108240 
	C70.854439,8.757813 71.635109,4.339707 76.000000,1.000000 
	C119.687561,1.000000 163.375122,1.000000 207.621948,1.353555 
	C211.742645,3.782111 213.454193,6.846310 213.028687,11.341411 
	C210.897568,18.880989 208.109055,20.989382 200.321304,20.993534 
	C165.666458,21.012014 131.011612,21.001560 96.356766,21.001566 
	C94.607002,21.001566 92.857239,21.001566 91.188477,21.001566 
	C91.079567,22.015472 91.013893,22.341438 91.013863,22.667410 
	C91.006813,108.304825 90.982323,193.942261 91.130463,279.579437 
	C91.134102,281.687622 92.587067,284.255249 94.149078,285.829834 
	C119.493706,311.378510 144.964264,336.802246 170.412750,362.247864 
	C171.445496,363.280487 172.540894,364.250427 174.008636,365.625854 
	C197.256897,341.509735 225.281311,328.233887 258.064209,328.359467 
	C247.040665,317.327362 236.056076,306.334290 225.047928,295.317596 
	C223.219879,296.990448 220.988480,299.246399 218.540924,301.236603 
	C204.911072,312.319427 189.362671,316.397400 172.263046,312.457001 
	C131.181595,302.990295 116.107201,253.736649 144.871536,222.900269 
	C155.888855,211.089294 167.675690,199.998459 178.987762,188.457840 
	C180.910248,186.496552 182.634003,184.104828 183.719421,181.596054 
	C192.224228,161.938126 200.544434,142.200378 208.934097,122.492592 
	C222.201294,91.327255 235.446579,60.152531 248.770615,29.011513 
	C252.697235,19.834145 260.113495,18.422831 267.193817,25.462610 
	C281.371460,39.559059 295.491272,53.713844 309.580566,67.898590 
	C310.860413,69.187103 311.746521,70.866661 312.605927,72.070953 
	C334.314606,60.476990 354.047302,66.473846 365.721893,78.149109 
	C376.842560,89.270424 383.683167,108.632614 371.662170,131.376556 
	C388.498383,147.877975 405.622437,164.661530 422.998474,181.692062 
	C422.998474,170.878159 422.982391,160.401306 423.003632,149.924530 
	C423.020416,141.653152 425.130127,138.924393 433.413391,136.917297 
	C439.767975,137.194702 442.976807,140.425949 443.001831,146.245895 
	C443.011871,148.574554 442.610657,150.992645 443.114288,153.206772 
	C443.614899,155.407700 444.472656,158.087723 446.105438,159.386154 
	C468.308868,177.043274 490.674438,194.496475 513.000000,212.000000 
M253.956207,293.866760 
	C259.269867,299.109314 264.583527,304.351837 269.683075,309.383148 
	C273.928101,305.227112 278.012665,301.228210 281.482819,297.830811 
	C276.258423,292.187744 271.069550,286.583099 265.659210,280.361755 
	C261.540070,276.044098 257.420929,271.726440 253.846741,267.979980 
	C249.017914,272.363007 244.769943,276.218811 239.997864,280.550323 
	C243.718231,284.056854 247.208023,287.362396 250.719391,290.644897 
	C251.683228,291.545898 252.711624,292.377808 253.956207,293.866760 
M207.876984,222.593689 
	C202.146393,216.869736 196.415802,211.145798 191.258377,205.994354 
	C180.131943,216.747421 168.735199,226.595413 158.738510,237.703400 
	C144.658310,253.348846 147.865112,275.393494 165.485489,288.259369 
	C178.285599,295.859589 191.745209,296.614288 203.274216,287.348450 
	C215.874481,277.221649 226.811050,265.024780 238.284256,253.912735 
	C227.950989,243.351257 218.099747,233.282455 207.876984,222.593689 
M234.123215,220.556793 
	C240.118622,226.567917 246.226379,232.473007 252.051926,238.644470 
	C254.256149,240.979584 256.086182,241.153900 258.944611,239.924072 
	C289.454712,226.797638 320.023132,213.806870 350.570587,200.767242 
	C351.555206,200.346954 352.486938,199.802780 355.201416,198.422211 
	C352.774994,196.821609 351.020599,196.035553 349.745514,194.767471 
	C330.858185,175.984344 312.049774,157.121979 293.186462,138.314667 
	C287.538055,132.683014 281.778595,127.162773 275.805145,121.037949 
	C265.500946,110.701546 255.196747,100.365150 244.605499,89.740799 
	C230.744308,122.317734 217.146683,154.200256 203.703766,186.147873 
	C203.175598,187.403076 203.551559,189.844376 204.473434,190.780029 
	C214.154541,200.605682 224.033020,210.236893 234.123215,220.556793 
M179.296448,454.835907 
	C179.261185,455.251770 179.225922,455.667664 178.882858,456.697144 
	C176.584579,458.756104 174.286316,460.815063 171.051147,462.858521 
	C147.770996,462.906311 124.490379,463.039825 101.211182,462.912445 
	C97.588409,462.892639 95.009193,463.941864 92.420097,466.373657 
	C84.179558,474.113464 75.727699,481.628387 67.354584,489.226990 
	C66.223526,490.253448 65.075668,491.261414 63.324810,492.822510 
	C89.614525,492.822510 114.695023,492.822510 140.729935,492.977570 
	C243.699448,492.977570 346.668976,492.977570 450.991730,492.977570 
	C449.213837,491.497375 448.558746,490.992279 447.948425,490.437958 
	C404.425873,450.908234 361.071411,411.190460 317.230042,372.017670 
	C309.681671,365.273041 300.064240,360.844055 290.646057,354.995361 
	C258.034729,342.703308 227.401047,346.623596 200.640900,368.864410 
	C176.699738,388.762299 154.237167,410.439423 131.128357,431.338257 
	C127.122513,434.961029 123.147202,438.617523 118.346359,442.998993 
	C135.048431,442.998993 150.642075,442.991608 166.235703,443.001709 
	C175.754349,443.007874 178.670166,445.578369 179.926697,454.953674 
	C179.926697,454.953674 179.932190,454.849426 179.296448,454.835907 
M75.899200,296.117432 
	C57.832233,278.072693 39.765266,260.027954 21.003292,241.289078 
	C21.003292,243.979813 21.003296,245.596176 21.003294,247.212540 
	C21.003231,317.537689 21.002396,387.862823 21.006994,458.187958 
	C21.007126,460.187164 20.926048,462.199890 21.119148,464.183319 
	C22.209505,475.383057 27.676973,483.690887 37.619152,489.402374 
	C50.610550,477.436096 63.336941,465.713928 76.686119,453.771881 
	C103.979385,428.962128 131.272659,404.152344 158.769669,379.157379 
	C157.177612,377.483276 155.965164,376.152039 154.693649,374.879822 
	C135.869186,356.045013 117.053940,337.200958 98.197861,318.397827 
	C90.902206,311.122650 83.509933,303.944336 75.899200,296.117432 
M492.957794,292.057007 
	C492.957794,275.412018 492.957794,258.767029 492.957794,242.876648 
	C447.340942,288.493317 401.738983,334.095093 355.892914,379.941010 
	C362.071716,385.368835 368.669189,391.164490 375.474274,397.574432 
	C409.117035,428.135651 442.759796,458.696838 476.511322,489.356873 
	C487.703400,482.695709 493.019501,473.105347 493.011322,460.365479 
	C492.976593,406.396576 492.998596,352.427704 492.988190,298.458801 
	C492.987823,296.632416 492.862610,294.806061 492.957794,292.057007 
M274.498230,260.949982 
	C283.332520,269.783234 292.170715,278.612549 300.999908,287.450897 
	C308.774384,295.233429 308.731628,299.631653 300.814423,307.551727 
	C294.338104,314.030334 287.845490,320.492645 281.386139,326.988098 
	C280.403107,327.976654 279.561310,329.105591 278.279022,330.609619 
	C303.277802,335.374359 322.986053,348.335175 340.196594,365.661438 
	C367.463623,338.382935 394.220795,311.676544 420.826935,284.820557 
	C422.209412,283.425110 422.898132,280.756073 422.907837,278.675293 
	C423.041016,250.193512 422.997559,221.710892 422.997559,193.228485 
	C422.997559,191.662781 422.997589,190.097076 422.997589,189.516449 
	C419.631256,191.662064 416.507935,194.302094 412.913666,195.845291 
	C366.850983,215.622101 320.720367,235.240662 274.611206,254.909286 
	C273.340485,255.451340 272.116821,256.103668 270.573761,256.848053 
	C271.960052,258.299042 272.980438,259.367035 274.498230,260.949982 
M304.355072,121.144875 
	C326.491730,143.281586 348.597504,165.449463 370.841736,187.477570 
	C372.173676,188.796570 374.983704,190.056976 376.471222,189.535202 
	C382.712494,187.345932 388.712036,184.467514 394.569183,181.941086 
	C350.373810,137.716888 306.253510,93.567810 261.901703,49.187088 
	C259.517212,54.784668 257.210602,60.631649 254.530304,66.302002 
	C253.264557,68.979774 253.660843,70.561989 255.772507,72.647774 
	C271.884033,88.561752 287.846313,104.626801 304.355072,121.144875 
M64.349266,256.165985 
	C66.209351,258.198425 68.069443,260.230865 70.564941,262.957611 
	C70.564941,235.249832 70.564941,208.857483 70.564941,182.000214 
	C55.483219,194.123230 40.894070,205.850296 25.994362,217.826996 
	C38.899673,230.727325 51.372726,243.195557 64.349266,256.165985 
M465.666199,240.166336 
	C473.021393,232.819199 480.376587,225.472061 487.928711,217.928192 
	C472.751251,206.117493 458.189026,194.785538 443.240906,183.153320 
	C443.240906,209.937485 443.240906,235.791428 443.240906,263.245270 
	C451.151154,255.099167 458.158630,247.882736 465.666199,240.166336 
M341.616608,86.447235 
	C337.601654,86.264145 333.586670,86.081047 329.503357,85.894836 
	C339.210968,95.535347 348.363922,104.625031 357.255371,113.455009 
	C360.868774,102.789909 354.685089,91.147675 341.616608,86.447235 
z"/>
<path fill="#FFFFFF" opacity="1.000000" stroke="none" 
	d="
M513.000000,211.531342 
	C490.674438,194.496475 468.308868,177.043274 446.105438,159.386154 
	C444.472656,158.087723 443.614899,155.407700 443.114288,153.206772 
	C442.610657,150.992645 443.011871,148.574554 443.001831,146.245895 
	C442.976807,140.425949 439.767975,137.194702 433.409882,136.458252 
	C433.003571,123.645569 433.004333,111.360085 433.404785,99.043861 
	C436.542389,97.649582 440.074188,96.946365 441.864044,94.794334 
	C446.565002,89.142151 444.488525,78.935829 433.002869,77.477112 
	C433.007904,60.120926 433.014862,43.229767 433.305420,26.139517 
	C435.807953,23.710758 438.027191,21.481373 440.245850,19.251385 
	C446.237061,13.229589 445.132812,7.020856 437.000000,1.000000 
	C462.294678,1.000000 487.589355,1.000000 513.000000,1.000000 
	C513.000000,71.020851 513.000000,141.041763 513.000000,211.531342 
z"/>
<path fill="#FFFFFF" opacity="1.000000" stroke="none" 
	d="
M75.531342,1.000000 
	C71.635109,4.339707 70.854439,8.757813 70.878586,14.108240 
	C71.084480,59.720142 70.983307,105.333382 71.029877,150.946167 
	C71.032608,153.622864 70.697433,155.513397 68.201530,157.432297 
	C55.068211,167.529480 42.105446,177.855988 29.276865,188.339539 
	C19.917021,195.988403 10.856570,204.003647 1.331326,211.927795 
	C1.000000,141.774384 1.000000,71.548767 1.000000,1.000000 
	C25.686621,1.000000 50.374653,1.000000 75.531342,1.000000 
z"/>
<path fill="#020202" opacity="1.000000" stroke="none" 
	d="
M436.562500,1.000000 
	C445.132812,7.020856 446.237061,13.229589 440.245850,19.251385 
	C438.027191,21.481373 435.807953,23.710758 433.000977,26.236513 
	C422.183380,36.755276 411.982391,47.006817 401.712646,57.188995 
	C396.200897,62.653736 390.377563,63.154026 385.976501,58.712849 
	C381.561340,54.257481 382.144928,48.590584 387.681366,42.958687 
	C392.109558,38.454113 396.655029,34.064301 401.059448,29.536964 
	C407.032074,23.397692 412.919678,17.175724 418.976349,10.673832 
	C422.739258,7.238953 426.369629,4.119470 430.000000,0.999994 
	C432.041656,1.000000 434.083344,1.000000 436.562500,1.000000 
z"/>
<path fill="#FFFFFF" opacity="1.000000" stroke="none" 
	d="
M213.145508,10.990795 
	C213.454193,6.846310 211.742645,3.782111 208.090607,1.353555 
	C255.354233,1.000000 302.708466,1.000000 350.435059,1.345582 
	C346.598785,3.370074 345.657043,7.120365 344.446320,10.995980 
	C300.370819,10.995860 256.758179,10.993328 213.145508,10.990795 
z"/>
<path fill="#040404" opacity="1.000000" stroke="none" 
	d="
M344.909149,10.993568 
	C345.657043,7.120365 346.598785,3.370074 350.903687,1.345582 
	C353.700012,1.000000 356.400024,1.000000 359.639496,1.348863 
	C364.100311,3.557062 365.273651,7.148055 365.742859,11.380344 
	C365.320496,18.714209 365.437042,25.680134 364.982391,32.608574 
	C364.674316,37.303230 361.434387,40.026161 356.951355,40.801449 
	C352.373688,41.593102 348.683319,39.662472 346.723755,35.510471 
	C345.712708,33.368153 345.504852,30.739763 345.379120,28.307991 
	C345.081116,22.543823 345.048828,16.765921 344.909149,10.993568 
z"/>
<path fill="#FFFFFF" opacity="1.000000" stroke="none" 
	d="
M366.038513,10.996441 
	C365.273651,7.148055 364.100311,3.557062 360.089478,1.348863 
	C383.020905,1.000000 406.041779,1.000000 429.531342,0.999994 
	C426.369629,4.119470 422.739258,7.238953 418.517700,10.675655 
	C400.630463,10.994064 383.334503,10.995253 366.038513,10.996441 
z"/>
<path fill="#FFFFFF" opacity="1.000000" stroke="none" 
	d="
M1.000002,472.468658 
	C4.341343,479.100800 6.724498,486.893890 11.241164,493.145538 
	C18.627213,503.368713 28.921570,510.124817 41.873596,512.624817 
	C28.406666,513.000000 14.813334,513.000000 1.000000,513.000000 
	C1.000000,499.646576 1.000000,486.291962 1.000002,472.468658 
z"/>
<path fill="#FFFFFF" opacity="1.000000" stroke="none" 
	d="
M472.468658,513.000000 
	C479.100800,509.658661 486.893890,507.275543 493.145508,502.758850 
	C503.368744,495.372833 510.124786,485.078461 512.624817,472.126404 
	C513.000000,485.593353 513.000000,499.186676 513.000000,513.000000 
	C499.646576,513.000000 486.291962,513.000000 472.468658,513.000000 
z"/>
<path fill="#ECF1F9" opacity="1.000000" stroke="none" 
	d="
M365.742859,11.380344 
	C383.334503,10.995253 400.630463,10.994064 418.385132,10.991053 
	C412.919678,17.175724 407.032074,23.397692 401.059448,29.536964 
	C396.655029,34.064301 392.109558,38.454113 387.681366,42.958687 
	C382.144928,48.590584 381.561340,54.257481 385.976501,58.712849 
	C390.377563,63.154026 396.200897,62.653736 401.712646,57.188995 
	C411.982391,47.006817 422.183380,36.755276 432.717407,26.435604 
	C433.014862,43.229767 433.007904,60.120926 432.595856,77.731865 
	C425.247742,78.599586 418.290680,78.528038 411.366577,78.971413 
	C406.624634,79.275047 403.971191,82.549316 403.222626,87.019119 
	C402.460052,91.572739 404.329742,95.326843 408.528809,97.215836 
	C410.832245,98.252052 413.631012,98.382240 416.228607,98.529320 
	C421.813141,98.845528 427.412079,98.908173 433.005096,99.074608 
	C433.004333,111.360085 433.003571,123.645569 433.006317,136.390076 
	C425.130127,138.924393 423.020416,141.653152 423.003632,149.924530 
	C422.982391,160.401306 422.998474,170.878159 422.998474,181.692062 
	C405.622437,164.661530 388.498383,147.877975 371.662170,131.376556 
	C383.683167,108.632614 376.842560,89.270424 365.721893,78.149109 
	C354.047302,66.473846 334.314606,60.476990 312.605927,72.070953 
	C311.746521,70.866661 310.860413,69.187103 309.580566,67.898590 
	C295.491272,53.713844 281.371460,39.559059 267.193817,25.462610 
	C260.113495,18.422831 252.697235,19.834145 248.770615,29.011513 
	C235.446579,60.152531 222.201294,91.327255 208.934097,122.492592 
	C200.544434,142.200378 192.224228,161.938126 183.719421,181.596054 
	C182.634003,184.104828 180.910248,186.496552 178.987762,188.457840 
	C167.675690,199.998459 155.888855,211.089294 144.871536,222.900269 
	C116.107201,253.736649 131.181595,302.990295 172.263046,312.457001 
	C189.362671,316.397400 204.911072,312.319427 218.540924,301.236603 
	C220.988480,299.246399 223.219879,296.990448 225.047928,295.317596 
	C236.056076,306.334290 247.040665,317.327362 258.064209,328.359467 
	C225.281311,328.233887 197.256897,341.509735 174.008636,365.625854 
	C172.540894,364.250427 171.445496,363.280487 170.412750,362.247864 
	C144.964264,336.802246 119.493706,311.378510 94.149078,285.829834 
	C92.587067,284.255249 91.134102,281.687622 91.130463,279.579437 
	C90.982323,193.942261 91.006813,108.304825 91.013863,22.667410 
	C91.013893,22.341438 91.079567,22.015472 91.188477,21.001566 
	C92.857239,21.001566 94.607002,21.001566 96.356766,21.001566 
	C131.011612,21.001560 165.666458,21.012014 200.321304,20.993534 
	C208.109055,20.989382 210.897568,18.880989 213.028687,11.341411 
	C256.758179,10.993328 300.370819,10.995860 344.446320,10.995980 
	C345.048828,16.765921 345.081116,22.543823 345.379120,28.307991 
	C345.504852,30.739763 345.712708,33.368153 346.723755,35.510471 
	C348.683319,39.662472 352.373688,41.593102 356.951355,40.801449 
	C361.434387,40.026161 364.674316,37.303230 364.982391,32.608574 
	C365.437042,25.680134 365.320496,18.714209 365.742859,11.380344 
M169.976318,132.975555 
	C176.598587,131.636230 180.174393,127.942574 179.969620,122.652954 
	C179.771912,117.545517 175.837128,113.207916 170.277313,113.131935 
	C153.992340,112.909363 137.699509,112.897606 121.415627,113.163513 
	C115.907089,113.253471 112.043198,117.781090 111.987274,122.896347 
	C111.931595,127.989380 115.774925,132.205002 121.210487,132.888382 
	C122.685890,133.073898 124.197433,132.997177 125.692406,132.997787 
	C140.153366,133.003784 154.614319,133.000595 169.976318,132.975555 
M114.685013,73.768669 
	C117.386810,74.844986 120.066452,76.780708 122.794174,76.850990 
	C135.589050,77.180679 148.398331,77.101067 161.200012,76.953613 
	C167.640945,76.879425 172.028870,72.559067 171.967041,66.907722 
	C171.905258,61.259548 167.507217,57.102844 161.015625,57.037113 
	C148.379807,56.909168 135.739990,56.869389 123.105225,57.041656 
	C113.514206,57.172424 109.383759,64.838364 114.685013,73.768669 
M189.791565,63.569481 
	C187.905487,71.651321 193.532837,78.357025 200.856232,76.671539 
	C205.599838,75.579796 208.284698,72.427292 208.871689,67.668182 
	C209.389832,63.467247 206.378525,59.205719 202.148514,57.710060 
	C197.392120,56.028282 193.727295,57.583050 189.791565,63.569481 
z"/>
<path fill="#FFB954" opacity="1.000000" stroke="none" 
	d="
M291.402588,355.345398 
	C300.064240,360.844055 309.681671,365.273041 317.230042,372.017670 
	C361.071411,411.190460 404.425873,450.908234 447.948425,490.437958 
	C448.558746,490.992279 449.213837,491.497375 450.991730,492.977570 
	C346.668976,492.977570 243.699448,492.977570 140.426926,492.609070 
	C150.745300,482.451721 161.366669,472.662872 171.988037,462.874023 
	C174.286316,460.815063 176.584579,458.756104 179.245728,456.240051 
	C179.716461,455.471771 179.824326,455.160614 179.932190,454.849426 
	C179.932190,454.849426 179.926697,454.953674 180.229446,454.985596 
	C185.760941,450.403564 191.038284,445.843384 196.210052,441.166443 
	C220.268021,419.410217 244.281311,397.604614 268.345062,375.854828 
	C275.976013,368.957611 283.713745,362.178528 291.402588,355.345398 
M218.519424,458.914886 
	C221.247528,454.892090 221.708191,450.365814 218.225403,447.116150 
	C215.895752,444.942413 211.880951,443.513062 208.673050,443.604431 
	C204.434540,443.725128 201.637009,447.033020 200.989685,451.484436 
	C200.351135,455.875458 201.967819,459.350830 205.849426,461.531647 
	C210.387527,464.081299 214.459320,463.035278 218.519424,458.914886 
z"/>
<path fill="#ECF1F9" opacity="1.000000" stroke="none" 
	d="
M274.249512,260.692505 
	C272.980438,259.367035 271.960052,258.299042 270.573761,256.848053 
	C272.116821,256.103668 273.340485,255.451340 274.611206,254.909286 
	C320.720367,235.240662 366.850983,215.622101 412.913666,195.845291 
	C416.507935,194.302094 419.631256,191.662064 422.997589,189.516449 
	C422.997589,190.097076 422.997559,191.662781 422.997559,193.228485 
	C422.997559,221.710892 423.041016,250.193512 422.907837,278.675293 
	C422.898132,280.756073 422.209412,283.425110 420.826935,284.820557 
	C394.220795,311.676544 367.463623,338.382935 340.196594,365.661438 
	C322.986053,348.335175 303.277802,335.374359 278.279022,330.609619 
	C279.561310,329.105591 280.403107,327.976654 281.386139,326.988098 
	C287.845490,320.492645 294.338104,314.030334 300.814423,307.551727 
	C308.731628,299.631653 308.774384,295.233429 300.999908,287.450897 
	C292.170715,278.612549 283.332520,269.783234 274.249512,260.692505 
z"/>
<path fill="#FEDA9B" opacity="1.000000" stroke="none" 
	d="
M492.795593,292.979675 
	C492.862610,294.806061 492.987823,296.632416 492.988190,298.458801 
	C492.998596,352.427704 492.976593,406.396576 493.011322,460.365479 
	C493.019501,473.105347 487.703400,482.695709 476.511322,489.356873 
	C442.759796,458.696838 409.117035,428.135651 375.813354,397.218689 
	C384.973358,398.378418 391.171631,394.810974 397.415894,388.416290 
	C427.446930,357.661835 458.012390,327.429199 488.400116,297.023285 
	C489.806183,295.616364 491.327789,294.324890 492.795593,292.979675 
z"/>
<path fill="#FFFFFF" opacity="1.000000" stroke="none" 
	d="
M76.063332,453.991760 
	C63.336941,465.713928 50.610550,477.436096 37.619152,489.402374 
	C27.676973,483.690887 22.209505,475.383057 21.119148,464.183319 
	C20.926048,462.199890 21.007126,460.187164 21.006994,458.187958 
	C21.002396,387.862823 21.003231,317.537689 21.003294,247.212540 
	C21.003296,245.596176 21.003292,243.979813 21.003292,241.289078 
	C39.765266,260.027954 57.832233,278.072693 75.977249,296.903809 
	C76.057976,349.790710 76.060654,401.891235 76.063332,453.991760 
z"/>
<path fill="#FEFEFE" opacity="1.000000" stroke="none" 
	d="
M291.024323,355.170380 
	C283.713745,362.178528 275.976013,368.957611 268.345062,375.854828 
	C244.281311,397.604614 220.268021,419.410217 196.210052,441.166443 
	C191.038284,445.843384 185.760941,450.403564 180.179382,454.970764 
	C178.670166,445.578369 175.754349,443.007874 166.235703,443.001709 
	C150.642075,442.991608 135.048431,442.998993 118.346359,442.998993 
	C123.147202,438.617523 127.122513,434.961029 131.128357,431.338257 
	C154.237167,410.439423 176.699738,388.762299 200.640900,368.864410 
	C227.401047,346.623596 258.034729,342.703308 291.024323,355.170380 
z"/>
<path fill="#4DBAF5" opacity="1.000000" stroke="none" 
	d="
M276.070007,121.591492 
	C281.778595,127.162773 287.538055,132.683014 293.186462,138.314667 
	C312.049774,157.121979 330.858185,175.984344 349.745514,194.767471 
	C351.020599,196.035553 352.774994,196.821609 355.201416,198.422211 
	C352.486938,199.802780 351.555206,200.346954 350.570587,200.767242 
	C320.023132,213.806870 289.454712,226.797638 258.944611,239.924072 
	C256.086182,241.153900 254.256149,240.979584 252.051926,238.644470 
	C246.226379,232.473007 240.118622,226.567917 234.063797,219.884354 
	C241.682404,201.233765 249.320053,183.238251 257.051086,165.282928 
	C263.332611,150.694092 269.726135,136.153488 276.070007,121.591492 
z"/>
<path fill="#FDDA9B" opacity="1.000000" stroke="none" 
	d="
M76.374725,453.881836 
	C76.060654,401.891235 76.057976,349.790710 76.108482,297.206055 
	C83.509933,303.944336 90.902206,311.122650 98.197861,318.397827 
	C117.053940,337.200958 135.869186,356.045013 154.693649,374.879822 
	C155.965164,376.152039 157.177612,377.483276 158.769669,379.157379 
	C131.272659,404.152344 103.979385,428.962128 76.374725,453.881836 
z"/>
<path fill="#FFFFFE" opacity="1.000000" stroke="none" 
	d="
M492.876678,292.518311 
	C491.327789,294.324890 489.806183,295.616364 488.400116,297.023285 
	C458.012390,327.429199 427.446930,357.661835 397.415894,388.416290 
	C391.171631,394.810974 384.973358,398.378418 375.709595,396.911530 
	C368.669189,391.164490 362.071716,385.368835 355.892914,379.941010 
	C401.738983,334.095093 447.340942,288.493317 492.957794,242.876648 
	C492.957794,258.767029 492.957794,275.412018 492.876678,292.518311 
z"/>
<path fill="#FDFEFE" opacity="1.000000" stroke="none" 
	d="
M275.937561,121.314728 
	C269.726135,136.153488 263.332611,150.694092 257.051086,165.282928 
	C249.320053,183.238251 241.682404,201.233765 233.930664,219.566879 
	C224.033020,210.236893 214.154541,200.605682 204.473434,190.780029 
	C203.551559,189.844376 203.175598,187.403076 203.703766,186.147873 
	C217.146683,154.200256 230.744308,122.317734 244.605499,89.740799 
	C255.196747,100.365150 265.500946,110.701546 275.937561,121.314728 
z"/>
<path fill="#FDFDFD" opacity="1.000000" stroke="none" 
	d="
M304.105042,120.894852 
	C287.846313,104.626801 271.884033,88.561752 255.772507,72.647774 
	C253.660843,70.561989 253.264557,68.979774 254.530304,66.302002 
	C257.210602,60.631649 259.517212,54.784668 261.901703,49.187088 
	C306.253510,93.567810 350.373810,137.716888 394.569183,181.941086 
	C388.712036,184.467514 382.712494,187.345932 376.471222,189.535202 
	C374.983704,190.056976 372.173676,188.796570 370.841736,187.477570 
	C348.597504,165.449463 326.491730,143.281586 304.105042,120.894852 
z"/>
<path fill="#FE5D5D" opacity="1.000000" stroke="none" 
	d="
M208.248520,223.213654 
	C218.099747,233.282455 227.950989,243.351257 238.284256,253.912735 
	C226.811050,265.024780 215.874481,277.221649 203.274216,287.348450 
	C191.745209,296.614288 178.285599,295.859589 165.257629,287.563843 
	C164.911346,272.629456 170.460388,260.941589 180.600082,251.083115 
	C189.980804,241.962555 199.044968,232.516418 208.248520,223.213654 
z"/>
<path fill="#FEFEFE" opacity="1.000000" stroke="none" 
	d="
M171.519592,462.866272 
	C161.366669,472.662872 150.745300,482.451721 139.949707,492.531525 
	C114.695023,492.822510 89.614525,492.822510 63.324810,492.822510 
	C65.075668,491.261414 66.223526,490.253448 67.354584,489.226990 
	C75.727699,481.628387 84.179558,474.113464 92.420097,466.373657 
	C95.009193,463.941864 97.588409,462.892639 101.211182,462.912445 
	C124.490379,463.039825 147.770996,462.906311 171.519592,462.866272 
z"/>
<path fill="#FCFBFB" opacity="1.000000" stroke="none" 
	d="
M208.062759,222.903671 
	C199.044968,232.516418 189.980804,241.962555 180.600082,251.083115 
	C170.460388,260.941589 164.911346,272.629456 165.010376,287.296387 
	C147.865112,275.393494 144.658310,253.348846 158.738510,237.703400 
	C168.735199,226.595413 180.131943,216.747421 191.258377,205.994354 
	C196.415802,211.145798 202.146393,216.869736 208.062759,222.903671 
z"/>
<path fill="#72D7FE" opacity="1.000000" stroke="none" 
	d="
M64.097519,255.914886 
	C51.372726,243.195557 38.899673,230.727325 25.994362,217.826996 
	C40.894070,205.850296 55.483219,194.123230 70.564941,182.000214 
	C70.564941,208.857483 70.564941,235.249832 70.564941,262.957611 
	C68.069443,260.230865 66.209351,258.198425 64.097519,255.914886 
z"/>
<path fill="#72D7FE" opacity="1.000000" stroke="none" 
	d="
M465.416138,240.416321 
	C458.158630,247.882736 451.151154,255.099167 443.240906,263.245270 
	C443.240906,235.791428 443.240906,209.937485 443.240906,183.153320 
	C458.189026,194.785538 472.751251,206.117493 487.928711,217.928192 
	C480.376587,225.472061 473.021393,232.819199 465.416138,240.416321 
z"/>
<path fill="#697EF9" opacity="1.000000" stroke="none" 
	d="
M265.880676,280.978424 
	C271.069550,286.583099 276.258423,292.187744 281.482819,297.830811 
	C278.012665,301.228210 273.928101,305.227112 269.683075,309.383148 
	C264.583527,304.351837 259.269867,299.109314 254.042343,293.263885 
	C258.045868,288.766815 261.963287,284.872620 265.880676,280.978424 
z"/>
<path fill="#F65A5A" opacity="1.000000" stroke="none" 
	d="
M342.003418,86.599808 
	C354.685089,91.147675 360.868774,102.789909 357.255371,113.455009 
	C348.363922,104.625031 339.210968,95.535347 329.503357,85.894836 
	C333.586670,86.081047 337.601654,86.264145 342.003418,86.599808 
z"/>
<path fill="#FCFCFC" opacity="1.000000" stroke="none" 
	d="
M265.769958,280.670105 
	C261.963287,284.872620 258.045868,288.766815 253.919434,292.951233 
	C252.711624,292.377808 251.683228,291.545898 250.719391,290.644897 
	C247.208023,287.362396 243.718231,284.056854 239.997864,280.550323 
	C244.769943,276.218811 249.017914,272.363007 253.846741,267.979980 
	C257.420929,271.726440 261.540070,276.044098 265.769958,280.670105 
z"/>
<path fill="#FEFEFE" opacity="1.000000" stroke="none" 
	d="
M179.614319,454.842651 
	C179.824326,455.160614 179.716461,455.471771 179.399628,455.933228 
	C179.225922,455.667664 179.261185,455.251770 179.614319,454.842651 
z"/>
<path fill="#040404" opacity="1.000000" stroke="none" 
	d="
M433.404785,99.043861 
	C427.412079,98.908173 421.813141,98.845528 416.228607,98.529320 
	C413.631012,98.382240 410.832245,98.252052 408.528809,97.215836 
	C404.329742,95.326843 402.460052,91.572739 403.222626,87.019119 
	C403.971191,82.549316 406.624634,79.275047 411.366577,78.971413 
	C418.290680,78.528038 425.247742,78.599586 432.597778,78.196899 
	C444.488525,78.935829 446.565002,89.142151 441.864044,94.794334 
	C440.074188,96.946365 436.542389,97.649582 433.404785,99.043861 
z"/>
<path fill="#020202" opacity="1.000000" stroke="none" 
	d="
M169.525787,132.987793 
	C154.614319,133.000595 140.153366,133.003784 125.692406,132.997787 
	C124.197433,132.997177 122.685890,133.073898 121.210487,132.888382 
	C115.774925,132.205002 111.931595,127.989380 111.987274,122.896347 
	C112.043198,117.781090 115.907089,113.253471 121.415627,113.163513 
	C137.699509,112.897606 153.992340,112.909363 170.277313,113.131935 
	C175.837128,113.207916 179.771912,117.545517 179.969620,122.652954 
	C180.174393,127.942574 176.598587,131.636230 169.525787,132.987793 
z"/>
<path fill="#020202" opacity="1.000000" stroke="none" 
	d="
M114.433960,73.473602 
	C109.383759,64.838364 113.514206,57.172424 123.105225,57.041656 
	C135.739990,56.869389 148.379807,56.909168 161.015625,57.037113 
	C167.507217,57.102844 171.905258,61.259548 171.967041,66.907722 
	C172.028870,72.559067 167.640945,76.879425 161.200012,76.953613 
	C148.398331,77.101067 135.589050,77.180679 122.794174,76.850990 
	C120.066452,76.780708 117.386810,74.844986 114.433960,73.473602 
z"/>
<path fill="#040405" opacity="1.000000" stroke="none" 
	d="
M189.920425,63.206257 
	C193.727295,57.583050 197.392120,56.028282 202.148514,57.710060 
	C206.378525,59.205719 209.389832,63.467247 208.871689,67.668182 
	C208.284698,72.427292 205.599838,75.579796 200.856232,76.671539 
	C193.532837,78.357025 187.905487,71.651321 189.920425,63.206257 
z"/>
<path fill="#070502" opacity="1.000000" stroke="none" 
	d="
M218.289215,459.214172 
	C214.459320,463.035278 210.387527,464.081299 205.849426,461.531647 
	C201.967819,459.350830 200.351135,455.875458 200.989685,451.484436 
	C201.637009,447.033020 204.434540,443.725128 208.673050,443.604431 
	C211.880951,443.513062 215.895752,444.942413 218.225403,447.116150 
	C221.708191,450.365814 221.247528,454.892090 218.289215,459.214172 
z"/>
</svg>