<svg version="1.1" id="Layer_1" xmlns="http://www.w3.org/2000/svg" xmlns:xlink="http://www.w3.org/1999/xlink" x="0px" y="0px"
	 width="100%" viewBox="0 0 500 500" enable-background="new 0 0 500 500" xml:space="preserve">
<path fill="#FFFFFF" opacity="1.000000" stroke="none" 
	d="
M249.000000,501.000000 
	C166.000015,501.000000 83.500038,501.000000 1.000044,501.000000 
	C1.000030,334.333405 1.000030,167.666779 1.000015,1.000134 
	C167.666565,1.000089 334.333130,1.000089 500.999756,1.000045 
	C500.999847,167.666519 500.999847,334.333038 500.999939,500.999786 
	C417.166656,501.000000 333.333344,501.000000 249.000000,501.000000 
M402.998016,242.073975 
	C402.110931,235.548462 401.309052,229.009949 400.315460,222.500702 
	C399.031647,214.090454 398.101624,205.581375 396.113068,197.333313 
	C392.498169,182.339157 382.617676,172.164352 369.039764,165.616180 
	C354.605927,158.655212 338.925476,156.795609 323.184906,156.092712 
	C306.591003,155.351715 289.960907,154.934280 273.353546,155.095322 
	C247.484360,155.346161 221.503891,153.125351 195.800568,157.998108 
	C183.316635,160.364777 171.141510,164.105164 160.779388,171.371872 
	C150.400162,178.650558 142.303238,188.398483 137.676422,200.561081 
	C134.911392,207.829575 131.761078,214.979065 129.478607,222.395813 
	C127.202362,229.792328 125.793282,237.455719 123.311478,245.105453 
	C117.779747,250.992767 112.619781,257.295074 106.625160,262.665710 
	C98.555702,269.895172 96.064178,279.867035 92.630699,289.259979 
	C90.427101,295.288330 89.993217,301.998047 89.092033,308.447906 
	C88.806755,310.489685 89.995407,312.719849 89.792328,314.793579 
	C88.450523,328.495636 93.369606,337.201874 105.475586,342.342133 
	C106.789848,342.900177 107.819977,344.100067 109.040497,344.914429 
	C110.114433,345.630951 111.198021,346.542480 112.402870,346.816956 
	C117.481125,347.973938 122.695610,348.612488 127.688850,350.040161 
	C132.502747,351.416595 138.336823,348.309906 142.381912,353.383118 
	C142.606354,353.664581 144.769073,352.360809 146.051346,351.849396 
	C147.468750,351.284088 148.900925,350.357605 150.344452,350.322662 
	C157.929352,350.139038 165.520950,350.252258 173.108017,350.127747 
	C176.740540,350.068115 180.125061,349.628143 183.423889,352.378296 
	C185.079819,353.758850 188.450836,353.804688 190.877335,353.411560 
	C200.636917,351.830475 210.290649,348.592651 220.057358,348.280792 
	C237.136932,347.735474 254.502274,345.923248 271.155914,352.387573 
	C273.079102,353.134064 276.002777,352.343018 278.093018,351.424133 
	C284.366180,348.666351 290.404572,345.724182 297.650818,347.831604 
	C300.207123,348.575073 303.408112,348.873535 305.816528,348.000549 
	C311.585144,345.909637 316.683777,347.775421 320.854340,350.808197 
	C325.243774,354.000153 328.344269,352.738434 332.101624,350.490143 
	C333.666809,349.553650 335.824646,348.412720 337.338318,348.806213 
	C342.108795,350.046326 346.670105,352.067780 351.378479,353.581116 
	C353.348633,354.214355 355.483124,354.602753 357.546387,354.617432 
	C360.677368,354.639771 363.834198,354.402130 366.937073,353.967896 
	C369.537018,353.604065 372.164734,353.041138 374.617920,352.129761 
	C377.504272,351.057434 380.114716,348.589600 383.298126,351.481628 
	C383.688660,351.836456 384.586823,351.860535 385.180603,351.728027 
	C390.549957,350.529205 395.993805,349.556458 401.244873,347.956360 
	C415.031433,343.755432 425.613770,335.555969 431.784760,322.248688 
	C433.179077,319.242035 434.425537,316.156189 435.541046,313.035645 
	C436.047485,311.619019 436.339142,310.014069 436.257874,308.520172 
	C436.028748,304.309631 434.376099,299.784241 435.433838,295.980621 
	C437.410095,288.873901 438.053772,281.722260 435.707275,275.127075 
	C433.514313,268.963318 430.138977,262.463470 425.425415,258.136047 
	C418.855316,252.104141 410.555542,247.956253 402.998016,242.073975 
z"/>
<path fill="#F8F8F8" opacity="1.000000" stroke="none" 
	d="
M402.996002,243.002075 
	C410.555542,247.956253 418.855316,252.104141 425.425415,258.136047 
	C430.138977,262.463470 433.514313,268.963318 435.707275,275.127075 
	C438.053772,281.722260 437.410095,288.873901 435.433838,295.980621 
	C434.376099,299.784241 436.028748,304.309631 436.257874,308.520172 
	C436.339142,310.014069 436.047485,311.619019 435.541046,313.035645 
	C434.425537,316.156189 433.179077,319.242035 431.784760,322.248688 
	C425.613770,335.555969 415.031433,343.755432 401.244873,347.956360 
	C395.993805,349.556458 390.549957,350.529205 385.180603,351.728027 
	C384.586823,351.860535 383.688660,351.836456 383.298126,351.481628 
	C380.114716,348.589600 377.504272,351.057434 374.617920,352.129761 
	C372.164734,353.041138 369.537018,353.604065 366.937073,353.967896 
	C363.834198,354.402130 360.677368,354.639771 357.546387,354.617432 
	C355.483124,354.602753 353.348633,354.214355 351.378479,353.581116 
	C346.670105,352.067780 342.108795,350.046326 337.338318,348.806213 
	C335.824646,348.412720 333.666809,349.553650 332.101624,350.490143 
	C328.344269,352.738434 325.243774,354.000153 320.854340,350.808197 
	C316.683777,347.775421 311.585144,345.909637 305.816528,348.000549 
	C303.408112,348.873535 300.207123,348.575073 297.650818,347.831604 
	C290.404572,345.724182 284.366180,348.666351 278.093018,351.424133 
	C276.002777,352.343018 273.079102,353.134064 271.155914,352.387573 
	C254.502274,345.923248 237.136932,347.735474 220.057358,348.280792 
	C210.290649,348.592651 200.636917,351.830475 190.877335,353.411560 
	C188.450836,353.804688 185.079819,353.758850 183.423889,352.378296 
	C180.125061,349.628143 176.740540,350.068115 173.108017,350.127747 
	C165.520950,350.252258 157.929352,350.139038 150.344452,350.322662 
	C148.900925,350.357605 147.468750,351.284088 146.051346,351.849396 
	C144.769073,352.360809 142.606354,353.664581 142.381912,353.383118 
	C138.336823,348.309906 132.502747,351.416595 127.688850,350.040161 
	C122.695610,348.612488 117.481125,347.973938 112.402870,346.816956 
	C111.198021,346.542480 110.114433,345.630951 109.040497,344.914429 
	C107.819977,344.100067 106.789848,342.900177 105.475586,342.342133 
	C93.369606,337.201874 88.450523,328.495636 89.792328,314.793579 
	C89.995407,312.719849 88.806755,310.489685 89.092033,308.447906 
	C89.993217,301.998047 90.427101,295.288330 92.630699,289.259979 
	C96.064178,279.867035 98.555702,269.895172 106.625160,262.665710 
	C112.619781,257.295074 117.779747,250.992767 123.962692,245.208160 
	C126.921715,249.608032 130.972870,250.935669 135.367996,252.005539 
	C137.373138,252.493637 139.136261,253.976028 141.007431,255.391586 
	C139.501144,257.929749 138.419571,260.705231 136.389435,262.087097 
	C133.586990,263.994629 129.685532,264.315765 126.944908,266.279510 
	C122.501198,269.463593 116.568924,272.670807 114.887520,277.210083 
	C110.109604,290.108948 106.918663,303.627747 103.709175,317.047485 
	C103.091339,319.630798 101.675117,323.465515 105.017204,326.291138 
	C105.353447,327.056488 105.668617,327.525299 106.174438,328.332581 
	C107.722878,329.114868 109.054779,329.821808 110.442780,329.958313 
	C117.620163,330.664062 124.802101,331.533600 132.000961,331.761444 
	C142.563705,332.095764 153.142075,331.954193 163.713882,331.977142 
	C169.626328,331.989960 175.539368,331.958954 181.451385,331.886841 
	C187.928146,331.807861 194.404800,331.689362 200.880142,331.531738 
	C207.763474,331.364197 214.645142,331.129272 221.527634,330.926239 
	C228.534088,330.719513 235.539536,330.447784 242.547531,330.335236 
	C247.010544,330.263580 251.797684,329.412384 255.877213,330.696716 
	C264.956146,333.554993 273.840057,332.111267 282.811676,331.170380 
	C287.400391,330.689148 291.952728,329.178589 296.508942,329.230743 
	C303.255524,329.307983 309.984406,330.446106 316.733582,330.966766 
	C320.703339,331.273041 324.697296,331.344666 328.681335,331.369507 
	C335.952576,331.414825 343.228455,331.186676 350.495300,331.363342 
	C361.734131,331.636627 372.965149,332.217590 384.203125,332.541351 
	C389.725739,332.700470 395.625610,333.813873 400.701172,332.301697 
	C409.325653,329.732147 415.653442,323.048798 418.791962,314.816193 
	C421.520233,307.659668 425.155518,299.396362 416.543762,292.775421 
	C415.773743,292.183380 416.096985,289.313873 416.764679,287.906281 
	C417.786407,285.752289 419.550049,283.950226 421.343903,281.948120 
	C424.836578,278.007202 421.996063,270.485046 416.533844,267.991516 
	C409.464996,264.764496 402.301849,265.545593 395.165131,267.484833 
	C391.537231,268.470612 388.174316,269.125702 384.802734,266.649475 
	C383.869446,265.964020 382.269714,266.038666 380.972473,266.022125 
	C375.982361,265.958466 370.990936,265.999329 365.999207,265.571472 
	C366.997711,261.095490 367.997009,257.049286 369.330139,252.957275 
	C371.777985,250.941406 373.892029,248.971329 376.274902,247.220093 
	C378.738464,252.295898 381.246185,253.133972 386.180939,252.183807 
	C392.870605,250.895798 397.846039,246.884705 402.996002,243.002075 
z"/>
<path fill="#F4FDFD" opacity="1.000000" stroke="none" 
	d="
M402.997009,242.538025 
	C397.846039,246.884705 392.870605,250.895798 386.180939,252.183807 
	C381.246185,253.133972 378.738464,252.295898 376.273560,246.801956 
	C376.682861,240.760117 377.450165,235.364471 378.016418,229.947800 
	C378.549408,224.849838 378.539276,219.676804 379.346405,214.629272 
	C381.798157,199.296585 373.819702,184.467834 358.506134,182.008133 
	C346.290070,180.045975 334.026794,177.986710 321.705048,177.172638 
	C306.139191,176.144211 290.494110,176.228928 274.880646,176.034332 
	C261.892761,175.872467 248.901077,176.040405 235.911362,175.990082 
	C221.312958,175.933533 206.794113,175.925934 192.313766,178.851547 
	C179.424149,181.455734 168.277679,185.931412 161.097122,197.724808 
	C151.675766,213.198578 148.879745,230.457245 146.724731,248.211227 
	C144.634415,250.612518 142.821777,252.809982 141.009155,255.007462 
	C139.136261,253.976028 137.373138,252.493637 135.367996,252.005539 
	C130.972870,250.935669 126.921715,249.608032 124.308952,245.156464 
	C125.793282,237.455719 127.202362,229.792328 129.478607,222.395813 
	C131.761078,214.979065 134.911392,207.829575 137.676422,200.561081 
	C142.303238,188.398483 150.400162,178.650558 160.779388,171.371872 
	C171.141510,164.105164 183.316635,160.364777 195.800568,157.998108 
	C221.503891,153.125351 247.484360,155.346161 273.353546,155.095322 
	C289.960907,154.934280 306.591003,155.351715 323.184906,156.092712 
	C338.925476,156.795609 354.605927,158.655212 369.039764,165.616180 
	C382.617676,172.164352 392.498169,182.339157 396.113068,197.333313 
	C398.101624,205.581375 399.031647,214.090454 400.315460,222.500702 
	C401.309052,229.009949 402.110931,235.548462 402.997009,242.538025 
z"/>
<path fill="#FDFDFD" opacity="1.000000" stroke="none" 
	d="
M105.983788,327.994080 
	C105.668617,327.525299 105.353447,327.056488 105.059662,325.916077 
	C109.541687,311.192596 114.452446,297.262238 118.290520,283.042358 
	C120.516006,274.797028 123.186516,268.748291 133.267197,270.905121 
	C133.841263,271.027924 134.753799,270.247345 135.130356,270.485565 
	C136.197479,271.160553 137.068024,272.146362 138.009827,273.431519 
	C136.702682,282.341339 135.401672,290.829407 134.100662,299.317505 
	C134.577301,299.447266 135.053940,299.577026 135.530594,299.706787 
	C136.709702,296.748688 137.996658,293.828217 139.045044,290.824463 
	C141.109802,284.908691 143.042145,278.946777 145.289734,272.820984 
	C146.704590,271.439514 147.858963,270.240997 149.462769,269.031799 
	C153.790512,268.800354 157.668808,268.579590 161.480972,268.362610 
	C159.466141,286.401489 157.491150,304.083527 155.516174,321.765564 
	C155.931335,321.830322 156.346512,321.895081 156.761673,321.959839 
	C157.455170,319.967957 158.237106,318.001892 158.827759,315.979919 
	C162.586365,303.113525 166.287460,290.230347 170.038422,277.361694 
	C172.554642,268.729156 170.785568,270.233337 180.428162,269.976257 
	C182.304916,269.699768 183.768265,269.146912 185.212021,269.194000 
	C188.158005,269.290070 191.093445,269.709229 194.021088,270.440918 
	C193.678909,274.002441 193.146927,277.112274 193.053345,280.235229 
	C192.616409,294.816803 192.300446,309.401978 191.605484,324.149597 
	C187.785034,325.198883 184.327240,326.239441 180.795212,326.852295 
	C179.992035,326.991608 178.931900,325.649994 178.044312,324.581482 
	C178.398529,322.090698 179.059433,319.975281 178.871780,317.937988 
	C178.746277,316.575531 177.343445,314.199036 176.636765,314.243805 
	C174.847183,314.357056 172.293655,315.127106 171.569992,316.460876 
	C170.395889,318.624939 170.439682,321.449768 169.633972,324.172729 
	C167.964188,324.896820 166.657303,325.827820 165.290741,325.925629 
	C158.646652,326.401428 151.987564,326.798157 145.331177,326.843964 
	C144.221924,326.851562 143.099792,324.988525 141.988480,323.558289 
	C142.886139,315.296021 143.778946,307.465393 144.671738,299.634735 
	C144.205338,299.531342 143.738953,299.427948 143.272552,299.324554 
	C140.510452,307.887085 137.748337,316.449585 134.813370,325.341064 
	C130.454071,329.342590 125.378090,329.020844 123.995468,324.574432 
	C125.041924,315.676758 126.085312,307.199768 127.128693,298.722778 
	C126.444496,298.607788 125.760292,298.492798 125.076096,298.377808 
	C123.036324,307.249084 120.996552,316.120331 118.667389,325.221558 
	C116.910812,326.297028 115.520424,327.633240 113.959145,327.877594 
	C111.358315,328.284637 108.648003,327.992065 105.983788,327.994080 
M175.802353,299.191864 
	C175.294357,301.234039 174.786362,303.276245 174.280304,305.310638 
	C178.375809,307.127197 180.232147,305.515686 180.539307,301.782043 
	C181.106018,294.893402 181.524200,287.992249 181.954865,281.093262 
	C181.987381,280.572510 181.627365,280.027252 180.959457,278.018982 
	C179.045197,285.808472 177.499969,292.096313 175.802353,299.191864 
z"/>
<path fill="#F0EFEF" opacity="1.000000" stroke="none" 
	d="
M141.983612,323.989929 
	C143.099792,324.988525 144.221924,326.851562 145.331177,326.843964 
	C151.987564,326.798157 158.646652,326.401428 165.290741,325.925629 
	C166.657303,325.827820 167.964188,324.896820 169.979416,324.142273 
	C173.544678,321.222382 175.775681,323.048492 177.990051,324.990051 
	C178.931900,325.649994 179.992035,326.991608 180.795212,326.852295 
	C184.327240,326.239441 187.785034,325.198883 191.871231,324.157166 
	C192.649490,324.001465 192.826263,324.001953 193.014587,324.395569 
	C193.891388,325.517578 194.992554,327.026031 195.583252,326.847321 
	C199.112122,325.779572 202.523285,324.322845 206.322693,322.964539 
	C208.127365,322.019562 209.583298,321.106720 210.585663,320.478241 
	C212.337250,321.479279 213.670746,322.241364 215.151215,323.323792 
	C216.669327,324.205688 218.040817,325.219452 219.411514,325.218384 
	C221.272202,325.216919 223.132278,324.438782 225.224182,324.267426 
	C226.636368,324.693665 227.816956,324.846222 229.073975,325.373596 
	C233.795654,327.774048 237.964615,326.314941 242.367523,323.954956 
	C245.169815,321.729370 247.590088,322.280731 250.292114,324.294312 
	C256.083466,326.537811 262.791565,322.173370 267.610016,327.840485 
	C267.806122,328.071106 268.563019,327.878265 269.046326,327.803314 
	C275.368469,326.822937 281.716583,325.970886 287.987885,324.730865 
	C289.448090,324.442108 291.712585,322.852478 291.743011,321.807159 
	C291.808411,319.560669 290.660187,317.278870 289.965393,314.645325 
	C289.608307,312.045532 288.244232,308.635132 289.179260,307.800598 
	C291.901123,305.371246 295.515625,303.915161 298.890503,302.309540 
	C299.098236,302.210754 300.748596,304.059601 300.883575,305.110657 
	C301.197205,307.553436 300.995911,310.062469 301.000763,312.544647 
	C301.006287,315.368408 301.008972,318.192169 301.011749,321.389465 
	C301.005768,322.510010 301.000977,323.257050 300.830322,324.089813 
	C300.600342,324.280640 300.458160,324.445587 300.485168,324.480865 
	C300.627472,324.666595 300.812500,324.819611 301.067383,325.369049 
	C306.240234,328.326080 313.490845,326.498291 316.344360,321.972839 
	C319.414276,320.241730 320.911835,321.631287 322.027649,324.416748 
	C322.409576,325.479553 322.898254,326.764282 323.133270,326.719452 
	C327.430145,325.899597 331.696594,324.920227 336.131042,324.281586 
	C337.515778,325.052124 338.738983,325.515808 340.037537,326.345459 
	C344.238831,329.250580 347.517914,326.427338 351.371216,324.954163 
	C354.154480,324.615356 356.582275,324.311951 359.043640,324.349701 
	C360.994781,327.954163 369.534454,326.912231 373.396210,322.987762 
	C376.198700,322.987762 378.621094,322.990112 381.313110,323.186310 
	C389.972473,332.773621 396.995667,331.308716 405.102325,325.527252 
	C414.425903,318.877930 417.854858,309.366150 418.847168,298.428040 
	C415.806213,298.262360 413.398163,298.131195 410.557526,298.000702 
	C407.752899,298.663666 405.380859,299.325897 402.674255,299.993988 
	C401.893524,300.000305 401.447388,300.000763 400.771606,299.724243 
	C397.207428,298.670258 396.140594,296.440155 397.380920,293.489594 
	C399.325043,288.865051 401.636047,284.394745 403.496521,280.480103 
	C406.143890,280.727234 407.575012,280.860840 409.272461,281.210968 
	C410.526337,282.053833 411.541504,283.246826 412.496155,283.200165 
	C415.343506,283.061035 418.167114,282.435516 421.000000,282.000000 
	C421.000000,282.000000 420.998779,281.998779 420.998779,281.998779 
	C419.550049,283.950226 417.786407,285.752289 416.764679,287.906281 
	C416.096985,289.313873 415.773743,292.183380 416.543762,292.775421 
	C425.155518,299.396362 421.520233,307.659668 418.791962,314.816193 
	C415.653442,323.048798 409.325653,329.732147 400.701172,332.301697 
	C395.625610,333.813873 389.725739,332.700470 384.203125,332.541351 
	C372.965149,332.217590 361.734131,331.636627 350.495300,331.363342 
	C343.228455,331.186676 335.952576,331.414825 328.681335,331.369507 
	C324.697296,331.344666 320.703339,331.273041 316.733582,330.966766 
	C309.984406,330.446106 303.255524,329.307983 296.508942,329.230743 
	C291.952728,329.178589 287.400391,330.689148 282.811676,331.170380 
	C273.840057,332.111267 264.956146,333.554993 255.877213,330.696716 
	C251.797684,329.412384 247.010544,330.263580 242.547531,330.335236 
	C235.539536,330.447784 228.534088,330.719513 221.527634,330.926239 
	C214.645142,331.129272 207.763474,331.364197 200.880142,331.531738 
	C194.404800,331.689362 187.928146,331.807861 181.451385,331.886841 
	C175.539368,331.958954 169.626328,331.989960 163.713882,331.977142 
	C153.142075,331.954193 142.563705,332.095764 132.000961,331.761444 
	C124.802101,331.533600 117.620163,330.664062 110.442780,329.958313 
	C109.054779,329.821808 107.722878,329.114868 106.174438,328.332581 
	C108.648003,327.992065 111.358315,328.284637 113.959145,327.877594 
	C115.520424,327.633240 116.910812,326.297028 119.088806,325.224670 
	C121.197212,324.996887 122.594803,324.995972 123.992401,324.995117 
	C125.378090,329.020844 130.454071,329.342590 135.203339,325.291931 
	C137.838654,324.605865 139.911133,324.297882 141.983612,323.989929 
z"/>
<path fill="#E5FBFB" opacity="1.000000" stroke="none" 
	d="
M147.002441,248.007401 
	C148.879745,230.457245 151.675766,213.198578 161.097122,197.724808 
	C168.277679,185.931412 179.424149,181.455734 192.313766,178.851547 
	C206.794113,175.925934 221.312958,175.933533 235.911362,175.990082 
	C248.901077,176.040405 261.892761,175.872467 274.880646,176.034332 
	C290.494110,176.228928 306.139191,176.144211 321.705048,177.172638 
	C334.026794,177.986710 346.290070,180.045975 358.506134,182.008133 
	C373.819702,184.467834 381.798157,199.296585 379.346405,214.629272 
	C378.539276,219.676804 378.549408,224.849838 378.016418,229.947800 
	C377.450165,235.364471 376.682861,240.760117 376.004761,246.583099 
	C373.892029,248.971329 371.777985,250.941406 369.328613,252.557678 
	C368.991882,251.138565 368.990448,250.073257 368.993896,248.592072 
	C369.665833,243.606613 370.403473,239.045975 370.983765,234.465393 
	C371.895844,227.266449 372.734375,220.057709 373.543121,212.846268 
	C374.266876,206.393112 374.928192,200.178024 370.167084,194.436005 
	C365.402283,188.689575 359.528931,186.228455 352.446686,186.033615 
	C345.380981,185.839218 338.297150,186.143219 331.240875,185.811829 
	C323.987061,185.471146 316.765717,184.472641 309.513275,184.056152 
	C304.619690,183.775146 299.695221,184.085022 294.787354,183.989700 
	C279.674500,183.696182 264.564270,183.152725 249.450607,183.044937 
	C229.383331,182.901810 209.356171,182.768860 189.355026,185.771622 
	C178.208755,187.445038 170.116135,192.453415 165.576996,202.211929 
	C157.684250,219.180206 152.451492,236.916473 153.754242,256.013611 
	C153.506042,256.017914 153.009766,256.031738 152.706207,255.872711 
	C150.602600,253.144913 148.802521,250.576157 147.002441,248.007401 
z"/>
<path fill="#DAEEEF" opacity="1.000000" stroke="none" 
	d="
M368.989014,249.007965 
	C368.990448,250.073257 368.991882,251.138565 368.994812,252.603455 
	C367.997009,257.049286 366.997711,261.095490 365.708496,265.710236 
	C364.942078,267.185455 364.465515,268.092163 363.740906,268.998047 
	C363.492798,268.997192 362.996338,268.997559 362.749268,268.993225 
	C362.502167,268.988892 362.008026,268.976044 361.935303,268.614532 
	C358.907959,268.496490 355.953400,268.739929 352.623138,268.987640 
	C351.496063,268.988647 350.744629,268.985382 349.781982,268.722809 
	C348.048401,268.641510 346.526031,268.819550 344.673645,269.004395 
	C343.903656,269.020660 343.463654,269.030060 342.776733,268.753479 
	C338.680603,268.647461 334.831421,268.827393 330.569458,269.009583 
	C328.781067,269.025208 327.405396,269.038544 325.832397,268.788879 
	C324.754517,269.012238 323.873993,269.498627 322.619904,269.990234 
	C321.499207,269.996216 320.752045,269.996979 319.709961,269.701721 
	C313.597137,269.276855 307.779236,269.147980 301.634888,269.014923 
	C300.873047,269.006744 300.437714,269.002747 299.764954,268.727905 
	C298.017487,268.956390 296.507416,269.455719 294.540619,269.969788 
	C288.391266,270.323029 282.698700,270.661499 276.983398,270.699127 
	C276.633087,269.927582 276.305420,269.456909 275.923035,268.635468 
	C270.575104,268.854706 265.281860,269.424713 259.608459,270.002075 
	C256.821899,270.005463 254.415543,270.001495 251.716156,269.704224 
	C248.966309,269.274536 246.483994,269.312927 244.058868,268.959320 
	C240.707504,268.470642 238.699966,269.657440 237.618317,272.993103 
	C235.476059,272.666290 233.723175,272.337769 231.647186,271.840607 
	C229.380341,270.806976 227.368469,269.079895 225.504654,269.227142 
	C217.650696,269.847504 209.840897,271.027069 201.653259,272.038025 
	C197.956314,274.578918 196.408386,270.842804 194.033218,269.995300 
	C191.093445,269.709229 188.158005,269.290070 185.212021,269.194000 
	C183.768265,269.146912 182.304916,269.699768 180.341339,269.596313 
	C178.344528,268.807831 176.851273,268.423401 175.370117,267.997009 
	C169.486740,266.303162 162.866455,265.865326 160.328140,259.014832 
	C161.127838,258.993225 161.584839,258.979462 162.466766,258.969208 
	C164.591309,258.986725 166.290909,259.000702 168.045868,259.402710 
	C169.755264,260.526306 171.363174,261.749969 173.071457,261.911438 
	C179.830231,262.550201 186.615341,263.070557 193.400299,263.232239 
	C202.157166,263.440948 210.926041,263.121277 219.684525,263.293915 
	C228.328629,263.464294 236.623306,260.413422 245.664764,262.613312 
	C255.670181,265.047821 266.134735,266.252045 276.704620,264.061523 
	C281.762909,263.013245 287.187134,263.708435 292.446075,263.656647 
	C298.579346,263.596222 304.713226,263.595947 310.846619,263.544983 
	C318.720856,263.479584 326.598785,263.204468 334.467712,263.370605 
	C340.475983,263.497467 346.313538,263.331940 351.555969,259.942719 
	C354.057495,258.325500 356.521454,256.650208 359.384888,255.000870 
	C361.329468,254.349792 363.035431,253.914551 364.416779,252.992859 
	C366.084625,251.880005 367.477264,250.354736 368.989014,249.007965 
z"/>
<path fill="#F0EFEF" opacity="1.000000" stroke="none" 
	d="
M146.724731,248.211227 
	C148.802521,250.576157 150.602600,253.144913 152.705002,256.296143 
	C153.230545,260.435822 153.216721,263.809418 149.216629,265.669464 
	C148.731049,265.895294 149.061234,267.875397 149.013336,269.042480 
	C147.858963,270.240997 146.704590,271.439514 144.929901,272.853149 
	C142.211716,273.048737 140.113831,273.029236 138.015961,273.009766 
	C137.068024,272.146362 136.197479,271.160553 135.130356,270.485565 
	C134.753799,270.247345 133.841263,271.027924 133.267197,270.905121 
	C123.186516,268.748291 120.516006,274.797028 118.290520,283.042358 
	C114.452446,297.262238 109.541687,311.192596 105.038589,325.619507 
	C101.675117,323.465515 103.091339,319.630798 103.709175,317.047485 
	C106.918663,303.627747 110.109604,290.108948 114.887520,277.210083 
	C116.568924,272.670807 122.501198,269.463593 126.944908,266.279510 
	C129.685532,264.315765 133.586990,263.994629 136.389435,262.087097 
	C138.419571,260.705231 139.501144,257.929749 141.007416,255.391586 
	C142.821777,252.809982 144.634415,250.612518 146.724731,248.211227 
z"/>
<path fill="#F0EFEF" opacity="1.000000" stroke="none" 
	d="
M363.988983,268.998901 
	C364.465515,268.092163 364.942078,267.185455 365.709320,266.139954 
	C370.990936,265.999329 375.982361,265.958466 380.972473,266.022125 
	C382.269714,266.038666 383.869446,265.964020 384.802734,266.649475 
	C388.174316,269.125702 391.537231,268.470612 395.165131,267.484833 
	C402.301849,265.545593 409.464996,264.764496 416.533844,267.991516 
	C421.996063,270.485046 424.836578,278.007202 421.343903,281.948120 
	C420.998779,281.998779 421.000000,282.000000 421.000793,281.589569 
	C420.440704,271.287354 414.168060,266.385498 404.757141,268.988586 
	C400.693909,270.112518 396.924652,272.299225 392.653931,274.005676 
	C390.863220,275.345703 389.440430,276.683197 388.008820,278.010376 
	C388.000000,278.000000 388.021484,278.018646 387.631592,278.010162 
	C383.138000,278.594513 384.394653,274.658386 382.990662,272.559021 
	C382.824677,270.827209 382.658722,269.506653 382.372681,267.230682 
	C379.220459,270.303711 374.205261,266.642731 372.634705,272.039856 
	C368.199127,274.592743 366.638824,270.327972 363.988983,268.998901 
z"/>
<path fill="#E8E8E8" opacity="1.000000" stroke="none" 
	d="
M149.462784,269.031799 
	C149.061234,267.875397 148.731049,265.895294 149.216629,265.669464 
	C153.216721,263.809418 153.230545,260.435822 153.008545,256.455170 
	C153.009766,256.031738 153.506042,256.017914 154.116364,256.052185 
	C156.137939,256.400208 157.549225,256.713928 159.075745,257.283813 
	C159.455826,258.034210 159.720627,258.528412 159.985428,259.022644 
	C162.866455,265.865326 169.486740,266.303162 175.370117,267.997009 
	C176.851273,268.423401 178.344528,268.807831 179.919067,269.591461 
	C170.785568,270.233337 172.554642,268.729156 170.038422,277.361694 
	C166.287460,290.230347 162.586365,303.113525 158.827759,315.979919 
	C158.237106,318.001892 157.455170,319.967957 156.761673,321.959839 
	C156.346512,321.895081 155.931335,321.830322 155.516174,321.765564 
	C157.491150,304.083527 159.466141,286.401489 161.480972,268.362610 
	C157.668808,268.579590 153.790512,268.800354 149.462784,269.031799 
z"/>
<path fill="#E8E8E8" opacity="1.000000" stroke="none" 
	d="
M194.021088,270.440918 
	C196.408386,270.842804 197.956314,274.578918 201.647552,272.478973 
	C199.003387,289.923462 196.003220,306.962952 193.003052,324.002441 
	C192.826263,324.001953 192.649490,324.001465 192.206985,323.993439 
	C192.300446,309.401978 192.616409,294.816803 193.053345,280.235229 
	C193.146927,277.112274 193.678909,274.002441 194.021088,270.440918 
z"/>
<path fill="#E8E8E8" opacity="1.000000" stroke="none" 
	d="
M138.009827,273.431519 
	C140.113831,273.029236 142.211716,273.048737 144.669418,273.036072 
	C143.042145,278.946777 141.109802,284.908691 139.045044,290.824463 
	C137.996658,293.828217 136.709702,296.748688 135.530594,299.706787 
	C135.053940,299.577026 134.577301,299.447266 134.100662,299.317505 
	C135.401672,290.829407 136.702682,282.341339 138.009827,273.431519 
z"/>
<path fill="#E8E8E8" opacity="1.000000" stroke="none" 
	d="
M141.988480,323.558289 
	C139.911133,324.297882 137.838654,324.605865 135.376205,324.962952 
	C137.748337,316.449585 140.510452,307.887085 143.272552,299.324554 
	C143.738953,299.427948 144.205338,299.531342 144.671738,299.634735 
	C143.778946,307.465393 142.886139,315.296021 141.988480,323.558289 
z"/>
<path fill="#E8E8E8" opacity="1.000000" stroke="none" 
	d="
M175.878540,298.788025 
	C177.499969,292.096313 179.045197,285.808472 180.959457,278.018982 
	C181.627365,280.027252 181.987381,280.572510 181.954865,281.093262 
	C181.524200,287.992249 181.106018,294.893402 180.539307,301.782043 
	C180.232147,305.515686 178.375809,307.127197 174.280304,305.310638 
	C174.786362,303.276245 175.294357,301.234039 175.878540,298.788025 
z"/>
<path fill="#E8E8E8" opacity="1.000000" stroke="none" 
	d="
M123.995468,324.574402 
	C122.594803,324.995972 121.197212,324.996887 119.378189,324.994690 
	C120.996552,316.120331 123.036324,307.249084 125.076096,298.377808 
	C125.760292,298.492798 126.444496,298.607788 127.128693,298.722778 
	C126.085312,307.199768 125.041924,315.676758 123.995468,324.574402 
z"/>
<path fill="#E8E8E8" opacity="1.000000" stroke="none" 
	d="
M178.044312,324.581482 
	C175.775681,323.048492 173.544678,321.222382 170.314804,323.965179 
	C170.439682,321.449768 170.395889,318.624939 171.569992,316.460876 
	C172.293655,315.127106 174.847183,314.357056 176.636765,314.243805 
	C177.343445,314.199036 178.746277,316.575531 178.871780,317.937988 
	C179.059433,319.975281 178.398529,322.090698 178.044312,324.581482 
z"/>
<path fill="#FDFDFD" opacity="1.000000" stroke="none" 
	d="
M259.988647,269.994720 
	C265.281860,269.424713 270.575104,268.854706 275.625610,268.792694 
	C270.231659,276.400482 265.034302,283.467682 259.971405,290.629913 
	C259.053833,291.927979 257.866852,293.831818 258.197998,295.088837 
	C260.591705,304.175385 263.343811,313.167542 265.982422,322.189575 
	C266.382355,322.119690 266.782318,322.049805 267.182251,321.979919 
	C270.456879,304.986603 273.731476,287.993317 277.006104,271.000000 
	C282.698700,270.661499 288.391266,270.323029 294.927307,269.979065 
	C297.181305,269.648621 298.591858,269.323700 300.002380,268.998779 
	C300.437714,269.002747 300.873047,269.006744 301.740723,269.406006 
	C308.117035,269.866791 314.060944,269.932251 320.004883,269.997711 
	C320.752045,269.996979 321.499207,269.996216 322.958008,269.995239 
	C324.456329,269.680664 325.243011,269.366302 326.029724,269.051910 
	C327.405396,269.038544 328.781067,269.025208 330.578064,269.435364 
	C330.712616,271.638672 330.148926,273.425690 330.195251,275.196747 
	C330.299652,279.188324 329.092377,281.370239 324.565765,281.284607 
	C323.457367,281.263641 321.518311,283.532257 321.293488,284.958221 
	C319.350433,297.283356 317.712189,309.656555 315.983154,322.015411 
	C313.490845,326.498291 306.240234,328.326080 301.072449,325.124207 
	C300.992828,324.494293 300.996155,324.004089 300.996155,324.004089 
	C301.000977,323.257050 301.005768,322.510010 301.291077,321.133545 
	C304.169434,307.538849 306.767303,294.573547 309.569183,280.589935 
	C300.936676,282.741913 302.128387,277.072998 300.911224,273.019318 
	C300.400818,274.859039 299.890411,276.698761 299.224945,279.097412 
	C295.362823,279.097412 291.456573,279.097412 287.541534,279.097412 
	C286.688690,283.849915 285.939301,288.026031 285.052521,292.967590 
	C288.797119,292.967590 292.163666,292.967590 295.874481,292.967590 
	C295.380066,296.278473 294.998657,298.832672 294.562927,301.750671 
	C290.728485,301.928864 287.026001,302.100922 283.416351,302.268677 
	C282.609131,307.373077 281.898804,311.864807 281.061340,317.160400 
	C284.478119,316.339813 287.243439,315.675659 290.008789,315.011505 
	C290.660187,317.278870 291.808411,319.560669 291.743011,321.807159 
	C291.712585,322.852478 289.448090,324.442108 287.987885,324.730865 
	C281.716583,325.970886 275.368469,326.822937 269.046326,327.803314 
	C268.563019,327.878265 267.806122,328.071106 267.610016,327.840485 
	C262.791565,322.173370 256.083466,326.537811 250.292603,323.852112 
	C249.220322,316.865723 248.441940,310.617065 247.663559,304.368408 
	C247.018555,304.318054 246.373550,304.267700 245.728531,304.217346 
	C244.490768,310.808258 243.253021,317.399170 242.015259,323.990082 
	C237.964615,326.314941 233.795654,327.774048 229.227509,325.016205 
	C230.709549,317.823547 232.392578,311.408539 233.456268,304.892395 
	C235.186462,294.293518 236.511597,283.628540 238.007660,272.991455 
	C238.699966,269.657440 240.707504,268.470642 244.058868,268.959320 
	C246.483994,269.312927 248.966309,269.274536 251.665924,270.103943 
	C250.965744,275.590790 250.022781,280.384705 249.079803,285.178619 
	C249.424942,285.353363 249.770065,285.528076 250.115204,285.702789 
	C253.406357,280.466766 256.697510,275.230743 259.988647,269.994720 
z"/>
<path fill="#FDFDFD" opacity="1.000000" stroke="none" 
	d="
M372.992676,272.004883 
	C374.205261,266.642731 379.220459,270.303711 382.372681,267.230682 
	C382.658722,269.506653 382.824677,270.827209 382.713928,272.814209 
	C381.950165,275.396790 381.351257,277.292297 380.993866,279.232300 
	C378.307861,293.813293 375.669434,308.403076 373.016144,322.990112 
	C369.534454,326.912231 360.994781,327.954163 359.041962,323.886169 
	C358.415100,315.057709 357.823486,307.033936 357.231873,299.010162 
	C356.739075,299.002869 356.246307,298.995544 355.753540,298.988251 
	C354.174286,307.655365 352.595032,316.322479 351.015778,324.989624 
	C347.517914,326.427338 344.238831,329.250580 340.050354,325.931091 
	C340.658539,321.606720 341.366425,318.069275 341.993530,314.517609 
	C344.673096,299.341400 347.328827,284.160980 349.993225,268.982117 
	C350.744629,268.985382 351.496063,268.988647 353.073242,268.995361 
	C356.601990,268.991211 359.305023,268.983643 362.008026,268.976074 
	C362.008026,268.976044 362.502167,268.988892 362.749634,269.429474 
	C364.336212,278.435364 365.675293,287.000671 367.014404,295.565979 
	C367.545380,295.524475 368.076324,295.483002 368.607300,295.441528 
	C370.069092,287.629333 371.530884,279.817108 372.992676,272.004883 
z"/>
<path fill="#FDFDFD" opacity="1.000000" stroke="none" 
	d="
M193.014587,324.395569 
	C196.003220,306.962952 199.003387,289.923462 202.009247,272.442993 
	C209.840897,271.027069 217.650696,269.847504 225.504654,269.227142 
	C227.368469,269.079895 229.380341,270.806976 231.708878,272.249054 
	C235.289444,283.226227 230.643280,290.953064 223.098587,297.189575 
	C219.698105,300.000427 219.951950,302.118744 221.690811,305.549835 
	C224.354645,310.806061 226.437912,316.356537 228.755890,321.754883 
	C227.200760,322.680084 226.096695,323.336914 224.992615,323.993744 
	C223.132278,324.438782 221.272202,325.216919 219.411514,325.218384 
	C218.040817,325.219452 216.669327,324.205688 215.104202,322.932159 
	C213.360123,316.319977 211.810028,310.419708 210.259933,304.519470 
	C209.682648,304.549744 209.105377,304.580017 208.528091,304.610260 
	C207.676712,310.739044 206.825317,316.867859 205.973938,322.996643 
	C202.523285,324.322845 199.112122,325.779572 195.583252,326.847321 
	C194.992554,327.026031 193.891388,325.517578 193.014587,324.395569 
M215.018906,280.170990 
	C213.551163,284.147095 212.083420,288.123199 210.615677,292.099304 
	C211.088348,292.514404 211.561020,292.929474 212.033676,293.344574 
	C214.337021,292.038300 216.975388,291.089417 218.853256,289.329254 
	C220.894119,287.416260 222.228027,284.749023 223.870178,282.410675 
	C221.199829,281.620697 218.529465,280.830750 215.018906,280.170990 
z"/>
<path fill="#FDFDFD" opacity="1.000000" stroke="none" 
	d="
M393.021851,274.003143 
	C396.924652,272.299225 400.693909,270.112518 404.757141,268.988586 
	C414.168060,266.385498 420.440704,271.287354 421.000793,281.589600 
	C418.167114,282.435516 415.343506,283.061035 412.496155,283.200165 
	C411.541504,283.246826 410.526337,282.053833 409.118225,280.900024 
	C405.625092,276.219055 402.673340,278.321472 400.653931,281.106934 
	C394.479950,289.623230 391.506317,299.387482 391.106506,309.836182 
	C390.982666,313.072662 391.445190,316.855530 395.484497,317.833069 
	C399.544891,318.815735 402.511597,316.355377 404.694916,313.319427 
	C405.838348,311.729523 406.165161,309.552307 406.945862,307.406555 
	C403.576874,307.575500 400.964264,307.706512 396.987518,307.905945 
	C398.737274,304.459900 399.869232,302.230560 401.001221,300.001221 
	C401.447388,300.000763 401.893524,300.000305 403.077393,299.996094 
	C406.206757,299.328247 408.598450,298.664124 410.990112,298.000000 
	C413.398163,298.131195 415.806213,298.262360 418.847168,298.428040 
	C417.854858,309.366150 414.425903,318.877930 405.102325,325.527252 
	C396.995667,331.308716 389.972473,332.773621 381.251465,322.790466 
	C377.865173,311.262817 378.031830,300.468262 382.527893,289.924164 
	C384.241486,285.905487 386.183533,281.984283 388.021484,278.018646 
	C388.021484,278.018646 388.000000,278.000000 388.342896,277.978577 
	C390.131165,276.639160 391.576508,275.321167 393.021851,274.003143 
z"/>
<path fill="#FDFDFD" opacity="1.000000" stroke="none" 
	d="
M343.023651,269.039459 
	C343.463654,269.030060 343.903656,269.020660 344.679382,269.450439 
	C344.178406,275.589630 343.451172,281.308319 342.482483,286.985779 
	C340.376862,299.326599 338.147980,311.646362 335.969482,323.974731 
	C331.696594,324.920227 327.430145,325.899597 323.133270,326.719452 
	C322.898254,326.764282 322.409576,325.479553 322.301758,324.177612 
	C325.718353,309.057159 329.047028,294.607452 331.932037,280.069763 
	C332.956360,274.908051 333.392822,270.001038 340.404358,270.234253 
	C341.263275,270.262817 342.149872,269.458038 343.023651,269.039459 
z"/>
<path fill="#E8E8E8" opacity="1.000000" stroke="none" 
	d="
M289.965393,314.645325 
	C287.243439,315.675659 284.478119,316.339813 281.061340,317.160400 
	C281.898804,311.864807 282.609131,307.373077 283.416351,302.268677 
	C287.026001,302.100922 290.728485,301.928864 294.562927,301.750671 
	C294.998657,298.832672 295.380066,296.278473 295.874481,292.967590 
	C292.163666,292.967590 288.797119,292.967590 285.052521,292.967590 
	C285.939301,288.026031 286.688690,283.849915 287.541534,279.097412 
	C291.456573,279.097412 295.362823,279.097412 299.224945,279.097412 
	C299.890411,276.698761 300.400818,274.859039 300.911224,273.019318 
	C302.128387,277.072998 300.936676,282.741913 309.569183,280.589935 
	C306.767303,294.573547 304.169434,307.538849 301.292236,320.760040 
	C301.008972,318.192169 301.006287,315.368408 301.000763,312.544647 
	C300.995911,310.062469 301.197205,307.553436 300.883575,305.110657 
	C300.748596,304.059601 299.098236,302.210754 298.890503,302.309540 
	C295.515625,303.915161 291.901123,305.371246 289.179260,307.800598 
	C288.244232,308.635132 289.608307,312.045532 289.965393,314.645325 
z"/>
<path fill="#E8E8E8" opacity="1.000000" stroke="none" 
	d="
M342.776733,268.753479 
	C342.149872,269.458038 341.263275,270.262817 340.404358,270.234253 
	C333.392822,270.001038 332.956360,274.908051 331.932037,280.069763 
	C329.047028,294.607452 325.718353,309.057159 322.290466,323.780701 
	C320.911835,321.631287 319.414276,320.241730 316.344360,321.972839 
	C317.712189,309.656555 319.350433,297.283356 321.293488,284.958221 
	C321.518311,283.532257 323.457367,281.263641 324.565765,281.284607 
	C329.092377,281.370239 330.299652,279.188324 330.195251,275.196747 
	C330.148926,273.425690 330.712616,271.638672 330.990784,269.433105 
	C334.831421,268.827393 338.680603,268.647461 342.776733,268.753479 
z"/>
<path fill="#E8E8E8" opacity="1.000000" stroke="none" 
	d="
M225.224182,324.267426 
	C226.096695,323.336914 227.200760,322.680084 228.755890,321.754883 
	C226.437912,316.356537 224.354645,310.806061 221.690811,305.549835 
	C219.951950,302.118744 219.698105,300.000427 223.098587,297.189575 
	C230.643280,290.953064 235.289444,283.226227 232.031952,272.417725 
	C233.723175,272.337769 235.476059,272.666290 237.618317,272.993103 
	C236.511597,283.628540 235.186462,294.293518 233.456268,304.892395 
	C232.392578,311.408539 230.709549,317.823547 229.151093,324.641357 
	C227.816956,324.846222 226.636368,324.693665 225.224182,324.267426 
z"/>
<path fill="#E8E8E8" opacity="1.000000" stroke="none" 
	d="
M336.131042,324.281586 
	C338.147980,311.646362 340.376862,299.326599 342.482483,286.985779 
	C343.451172,281.308319 344.178406,275.589630 345.009399,269.443604 
	C346.526031,268.819550 348.048401,268.641510 349.781982,268.722809 
	C347.328827,284.160980 344.673096,299.341400 341.993530,314.517609 
	C341.366425,318.069275 340.658539,321.606720 339.975006,325.565094 
	C338.738983,325.515808 337.515778,325.052124 336.131042,324.281586 
z"/>
<path fill="#E8E8E8" opacity="1.000000" stroke="none" 
	d="
M400.771606,299.724243 
	C399.869232,302.230560 398.737274,304.459900 396.987518,307.905945 
	C400.964264,307.706512 403.576874,307.575500 406.945862,307.406555 
	C406.165161,309.552307 405.838348,311.729523 404.694916,313.319427 
	C402.511597,316.355377 399.544891,318.815735 395.484497,317.833069 
	C391.445190,316.855530 390.982666,313.072662 391.106506,309.836182 
	C391.506317,299.387482 394.479950,289.623230 400.653931,281.106934 
	C402.673340,278.321472 405.625092,276.219055 408.851898,280.683502 
	C407.575012,280.860840 406.143890,280.727234 403.496521,280.480103 
	C401.636047,284.394745 399.325043,288.865051 397.380920,293.489594 
	C396.140594,296.440155 397.207428,298.670258 400.771606,299.724243 
z"/>
<path fill="#E8E8E8" opacity="1.000000" stroke="none" 
	d="
M387.631592,278.010162 
	C386.183533,281.984283 384.241486,285.905487 382.527893,289.924164 
	C378.031830,300.468262 377.865173,311.262817 380.981873,322.596619 
	C378.621094,322.990112 376.198700,322.987762 373.396210,322.987762 
	C375.669434,308.403076 378.307861,293.813293 380.993866,279.232300 
	C381.351257,277.292297 381.950165,275.396790 382.713928,273.225464 
	C384.394653,274.658386 383.138000,278.594513 387.631592,278.010162 
z"/>
<path fill="#E8E8E8" opacity="1.000000" stroke="none" 
	d="
M351.371216,324.954163 
	C352.595032,316.322479 354.174286,307.655365 355.753540,298.988251 
	C356.246307,298.995544 356.739075,299.002869 357.231873,299.010162 
	C357.823486,307.033936 358.415100,315.057709 359.008423,323.545044 
	C356.582275,324.311951 354.154480,324.615356 351.371216,324.954163 
z"/>
<path fill="#E8E8E8" opacity="1.000000" stroke="none" 
	d="
M242.367523,323.954956 
	C243.253021,317.399170 244.490768,310.808258 245.728531,304.217346 
	C246.373550,304.267700 247.018555,304.318054 247.663559,304.368408 
	C248.441940,310.617065 249.220322,316.865723 249.998199,323.556580 
	C247.590088,322.280731 245.169815,321.729370 242.367523,323.954956 
z"/>
<path fill="#E8E8E8" opacity="1.000000" stroke="none" 
	d="
M206.322693,322.964539 
	C206.825317,316.867859 207.676712,310.739044 208.528091,304.610260 
	C209.105377,304.580017 209.682648,304.549744 210.259933,304.519470 
	C211.810028,310.419708 213.360123,316.319977 214.957245,322.611847 
	C213.670746,322.241364 212.337250,321.479279 210.585663,320.478241 
	C209.583298,321.106720 208.127365,322.019562 206.322693,322.964539 
z"/>
<path fill="#E8E8E8" opacity="1.000000" stroke="none" 
	d="
M410.557526,298.000702 
	C408.598450,298.664124 406.206757,299.328247 403.411957,299.990234 
	C405.380859,299.325897 407.752899,298.663666 410.557526,298.000702 
z"/>
<path fill="#E8E8E8" opacity="1.000000" stroke="none" 
	d="
M300.830292,324.089813 
	C300.996155,324.004089 300.992828,324.494293 300.987762,324.739136 
	C300.812500,324.819611 300.627472,324.666595 300.485168,324.480865 
	C300.458160,324.445587 300.600342,324.280640 300.830292,324.089813 
z"/>
<path fill="#DCF9FA" opacity="1.000000" stroke="none" 
	d="
M158.960495,257.027679 
	C157.549225,256.713928 156.137939,256.400208 154.364563,256.047882 
	C152.451492,236.916473 157.684250,219.180206 165.576996,202.211929 
	C170.116135,192.453415 178.208755,187.445038 189.355026,185.771622 
	C209.356171,182.768860 229.383331,182.901810 249.450607,183.044937 
	C264.564270,183.152725 279.674500,183.696182 294.787354,183.989700 
	C299.695221,184.085022 304.619690,183.775146 309.513275,184.056152 
	C316.765717,184.472641 323.987061,185.471146 331.240875,185.811829 
	C338.297150,186.143219 345.380981,185.839218 352.446686,186.033615 
	C359.528931,186.228455 365.402283,188.689575 370.167084,194.436005 
	C374.928192,200.178024 374.266876,206.393112 373.543121,212.846268 
	C372.734375,220.057709 371.895844,227.266449 370.983765,234.465393 
	C370.403473,239.045975 369.665833,243.606613 368.993896,248.592072 
	C367.477264,250.354736 366.084625,251.880005 364.416779,252.992859 
	C363.035431,253.914551 361.329468,254.349792 359.533142,254.694519 
	C363.941193,248.572800 367.586182,241.948318 366.760254,234.551880 
	C365.846466,226.369186 365.545349,218.580933 368.962646,210.521240 
	C368.968811,208.765945 369.083130,207.430145 368.946228,206.120605 
	C368.155487,198.555542 364.089386,193.716751 357.940063,192.634109 
	C355.861450,191.698242 353.849457,190.674026 351.822723,190.643982 
	C346.411865,190.563736 340.978058,191.260925 335.584015,191.004318 
	C327.837524,190.635818 320.130219,189.443069 312.383728,189.073746 
	C305.163513,188.729507 297.911835,189.112030 290.677643,188.978897 
	C276.906769,188.725479 263.132599,187.909775 249.370453,188.099518 
	C230.148041,188.364548 210.925903,189.144180 191.722366,190.085510 
	C181.662262,190.578644 173.047104,194.589294 169.375488,204.645767 
	C165.251236,215.942017 161.646057,227.475571 158.710403,239.131393 
	C157.718491,243.069702 159.459320,247.696304 159.958878,252.381760 
	C159.945999,253.502060 159.925522,254.248962 159.671387,255.174713 
	C159.278656,255.911606 159.119568,256.469635 158.960495,257.027679 
z"/>
<path fill="#C7F5F7" opacity="1.000000" stroke="none" 
	d="
M368.954742,210.952866 
	C365.545349,218.580933 365.846466,226.369186 366.760254,234.551880 
	C367.586182,241.948318 363.941193,248.572800 359.150696,254.694855 
	C356.521454,256.650208 354.057495,258.325500 351.555969,259.942719 
	C346.313538,263.331940 340.475983,263.497467 334.467712,263.370605 
	C326.598785,263.204468 318.720856,263.479584 310.846619,263.544983 
	C304.713226,263.595947 298.579346,263.596222 292.446075,263.656647 
	C287.187134,263.708435 281.762909,263.013245 276.704620,264.061523 
	C266.134735,266.252045 255.670181,265.047821 245.664764,262.613312 
	C236.623306,260.413422 228.328629,263.464294 219.684525,263.293915 
	C210.926041,263.121277 202.157166,263.440948 193.400299,263.232239 
	C186.615341,263.070557 179.830231,262.550201 173.071457,261.911438 
	C171.363174,261.749969 169.755264,260.526306 168.473083,259.393799 
	C173.718384,259.154144 178.741867,256.538635 183.478271,259.914520 
	C184.131485,260.380096 185.486908,260.156281 186.414474,259.891571 
	C191.195129,258.527191 195.835007,257.502106 200.963837,258.821136 
	C203.662918,259.515320 206.816437,258.313416 209.774765,258.156616 
	C215.155457,257.871490 220.547363,257.796173 225.927551,257.503723 
	C230.715836,257.243439 235.449768,254.304062 240.326950,257.746490 
	C241.418488,258.516937 243.566086,257.679535 245.211929,257.798248 
	C249.408066,258.100891 253.891846,257.701202 257.722534,259.078613 
	C264.950806,261.677734 271.437317,260.716339 278.472046,258.312744 
	C282.573456,256.911346 287.852875,256.581879 291.900482,257.909607 
	C299.545502,260.417358 306.775330,260.640839 314.142639,257.886566 
	C319.165649,256.008698 323.884552,255.512680 329.005463,257.912598 
	C341.680786,263.852814 361.934998,255.747177 361.961853,238.528030 
	C361.631378,234.730408 361.291656,231.365280 361.244293,227.741211 
	C361.313080,221.524521 362.045624,215.825424 366.366943,211.001007 
	C367.476471,210.987625 368.215607,210.970245 368.954742,210.952866 
z"/>
<path fill="#A8EEF1" opacity="1.000000" stroke="none" 
	d="
M361.952606,238.960526 
	C361.934998,255.747177 341.680786,263.852814 329.005463,257.912598 
	C323.884552,255.512680 319.165649,256.008698 314.142639,257.886566 
	C306.775330,260.640839 299.545502,260.417358 291.900482,257.909607 
	C287.852875,256.581879 282.573456,256.911346 278.472046,258.312744 
	C271.437317,260.716339 264.950806,261.677734 257.722534,259.078613 
	C253.891846,257.701202 249.408066,258.100891 245.211929,257.798248 
	C243.566086,257.679535 241.418488,258.516937 240.326950,257.746490 
	C235.449768,254.304062 230.715836,257.243439 225.927551,257.503723 
	C220.547363,257.796173 215.155457,257.871490 209.774765,258.156616 
	C206.816437,258.313416 203.662918,259.515320 200.963837,258.821136 
	C195.835007,257.502106 191.195129,258.527191 186.414474,259.891571 
	C185.486908,260.156281 184.131485,260.380096 183.478271,259.914520 
	C178.741867,256.538635 173.718384,259.154144 168.417725,259.005737 
	C166.290909,259.000702 164.591309,258.986725 162.454712,258.636108 
	C162.010422,257.854279 162.003128,257.409088 162.435181,256.966125 
	C164.817490,256.846252 166.826782,256.994659 168.687836,256.538422 
	C171.454147,255.860260 175.311371,256.699951 176.195496,252.120514 
	C177.476334,251.766373 178.393768,251.512283 179.295029,251.262665 
	C179.898453,252.995331 180.418716,254.489227 181.308472,256.143372 
	C184.994095,257.007904 188.421249,258.479675 191.479095,254.948029 
	C193.893387,253.968002 195.951614,252.977219 198.007996,252.349426 
	C198.316269,253.802902 198.626343,254.893372 199.259125,256.102142 
	C204.371033,255.466293 209.160248,254.712143 214.114685,254.204895 
	C214.826218,254.615768 215.372513,254.779755 215.993195,255.288574 
	C220.546829,257.031036 227.897110,254.614426 230.267853,251.006897 
	C234.755920,246.619019 236.667404,250.866440 239.250214,253.392151 
	C240.735519,254.028152 242.164810,254.906250 243.374649,254.668335 
	C246.608063,254.032516 249.747238,252.917557 253.291046,252.000549 
	C254.145874,252.057922 254.633530,252.107712 255.348816,252.389755 
	C259.210175,257.652710 264.488983,259.167358 270.027863,257.790527 
	C274.206146,256.751862 277.968628,254.040344 282.283813,252.014832 
	C284.481232,251.347107 286.310974,250.737991 288.358246,250.362137 
	C291.268433,252.421570 293.732056,254.877808 296.696808,255.955734 
	C305.592468,259.190094 313.034882,255.487778 320.331665,250.056976 
	C321.885620,250.067383 323.015656,250.102173 324.363312,250.370056 
	C328.770721,252.744370 332.805603,256.273926 337.179749,256.761780 
	C349.417786,258.126617 357.620697,251.224274 360.461517,238.945282 
	C361.157501,238.958832 361.555054,238.959671 361.952606,238.960526 
z"/>
<path fill="#E8E8E8" opacity="1.000000" stroke="none" 
	d="
M276.983398,270.699158 
	C273.731476,287.993317 270.456879,304.986603 267.182251,321.979919 
	C266.782318,322.049805 266.382355,322.119690 265.982422,322.189575 
	C263.343811,313.167542 260.591705,304.175385 258.197998,295.088837 
	C257.866852,293.831818 259.053833,291.927979 259.971405,290.629913 
	C265.034302,283.467682 270.231659,276.400482 275.680328,269.143463 
	C276.305420,269.456909 276.633087,269.927582 276.983398,270.699158 
z"/>
<path fill="#E8E8E8" opacity="1.000000" stroke="none" 
	d="
M372.634705,272.039856 
	C371.530884,279.817108 370.069092,287.629333 368.607300,295.441528 
	C368.076324,295.483002 367.545380,295.524475 367.014404,295.565979 
	C365.675293,287.000671 364.336212,278.435364 362.996704,269.433807 
	C362.996338,268.997559 363.492798,268.997192 363.740906,268.998047 
	C366.638824,270.327972 368.199127,274.592743 372.634705,272.039856 
z"/>
<path fill="#E8E8E8" opacity="1.000000" stroke="none" 
	d="
M259.608459,270.002075 
	C256.697510,275.230743 253.406357,280.466766 250.115204,285.702789 
	C249.770065,285.528076 249.424942,285.353363 249.079803,285.178619 
	C250.022781,280.384705 250.965744,275.590790 251.958954,270.397186 
	C254.415543,270.001495 256.821899,270.005463 259.608459,270.002075 
z"/>
<path fill="#E8E8E8" opacity="1.000000" stroke="none" 
	d="
M319.709961,269.701721 
	C314.060944,269.932251 308.117035,269.866791 302.067230,269.410217 
	C307.779236,269.147980 313.597137,269.276855 319.709961,269.701721 
z"/>
<path fill="#E8E8E8" opacity="1.000000" stroke="none" 
	d="
M361.935303,268.614563 
	C359.305023,268.983643 356.601990,268.991211 353.448914,268.991089 
	C355.953400,268.739929 358.907959,268.496490 361.935303,268.614563 
z"/>
<path fill="#C7F5F7" opacity="1.000000" stroke="none" 
	d="
M161.995834,256.963867 
	C162.003128,257.409088 162.010422,257.854279 162.029770,258.632568 
	C161.584839,258.979462 161.127838,258.993225 160.328140,259.014832 
	C159.720627,258.528412 159.455826,258.034210 159.075745,257.283813 
	C159.119568,256.469635 159.278656,255.911606 159.947998,255.181305 
	C160.641968,255.008591 160.825684,255.008133 161.112549,255.262466 
	C161.475739,255.999451 161.735794,256.481659 161.995834,256.963867 
z"/>
<path fill="#E8E8E8" opacity="1.000000" stroke="none" 
	d="
M299.764954,268.727905 
	C298.591858,269.323700 297.181305,269.648621 295.384094,269.964294 
	C296.507416,269.455719 298.017487,268.956390 299.764954,268.727905 
z"/>
<path fill="#E8E8E8" opacity="1.000000" stroke="none" 
	d="
M325.832397,268.788879 
	C325.243011,269.366302 324.456329,269.680664 323.331543,269.989990 
	C323.873993,269.498627 324.754517,269.012238 325.832397,268.788879 
z"/>
<path fill="#E8E8E8" opacity="1.000000" stroke="none" 
	d="
M392.653931,274.005676 
	C391.576508,275.321167 390.131165,276.639160 388.351715,277.988953 
	C389.440430,276.683197 390.863220,275.345703 392.653931,274.005676 
z"/>
<path fill="#E8E8E8" opacity="1.000000" stroke="none" 
	d="
M215.439011,280.105896 
	C218.529465,280.830750 221.199829,281.620697 223.870178,282.410675 
	C222.228027,284.749023 220.894119,287.416260 218.853256,289.329254 
	C216.975388,291.089417 214.337021,292.038300 212.033676,293.344574 
	C211.561020,292.929474 211.088348,292.514404 210.615677,292.099304 
	C212.083420,288.123199 213.551163,284.147095 215.439011,280.105896 
z"/>
<path fill="#C7F5F7" opacity="1.000000" stroke="none" 
	d="
M159.951263,252.008347 
	C159.459320,247.696304 157.718491,243.069702 158.710403,239.131393 
	C161.646057,227.475571 165.251236,215.942017 169.375488,204.645767 
	C173.047104,194.589294 181.662262,190.578644 191.722366,190.085510 
	C210.925903,189.144180 230.148041,188.364548 249.370453,188.099518 
	C263.132599,187.909775 276.906769,188.725479 290.677643,188.978897 
	C297.911835,189.112030 305.163513,188.729507 312.383728,189.073746 
	C320.130219,189.443069 327.837524,190.635818 335.584015,191.004318 
	C340.978058,191.260925 346.411865,190.563736 351.822723,190.643982 
	C353.849457,190.674026 355.861450,191.698242 357.568085,192.802307 
	C355.314728,193.556000 353.245544,193.421387 351.456665,194.065338 
	C346.550812,195.831421 341.762756,197.924728 336.595947,199.908997 
	C334.188568,199.265427 332.113281,198.601334 329.866821,197.631805 
	C329.333649,196.986023 329.013245,196.581802 328.603394,196.314896 
	C321.956299,191.986542 315.131989,193.334030 308.098297,195.329102 
	C304.902863,196.235489 301.362274,196.427643 298.029724,196.197784 
	C295.071289,195.993729 292.101227,193.881622 289.281342,194.147888 
	C281.854065,194.849243 274.504547,193.912186 267.123413,193.971848 
	C262.057098,194.012802 256.987061,193.931290 251.922729,193.774246 
	C247.463913,193.635971 242.992645,192.948502 238.559311,193.165649 
	C232.204590,193.476913 225.745392,197.394058 219.650604,192.148453 
	C219.155701,191.722488 217.996658,191.851028 217.209015,192.018051 
	C212.562943,193.003342 207.949860,194.148132 203.294098,195.081833 
	C201.609299,195.419708 199.611847,195.899506 198.143600,195.325638 
	C191.313858,192.656219 184.863556,195.110199 178.391144,196.555191 
	C177.167801,196.828293 175.917877,198.855865 175.448074,200.320221 
	C172.820618,208.510101 170.417801,216.772293 167.959702,225.016190 
	C165.278015,234.009949 162.619751,243.010666 159.951263,252.008347 
z"/>
<path fill="#A8EEF1" opacity="1.000000" stroke="none" 
	d="
M159.958893,252.381760 
	C162.619751,243.010666 165.278015,234.009949 167.959702,225.016190 
	C170.417801,216.772293 172.820618,208.510101 175.448074,200.320221 
	C175.917877,198.855865 177.167801,196.828293 178.391144,196.555191 
	C184.863556,195.110199 191.313858,192.656219 198.143600,195.325638 
	C199.611847,195.899506 201.609299,195.419708 203.294098,195.081833 
	C207.949860,194.148132 212.562943,193.003342 217.209015,192.018051 
	C217.996658,191.851028 219.155701,191.722488 219.650604,192.148453 
	C225.745392,197.394058 232.204590,193.476913 238.559311,193.165649 
	C242.992645,192.948502 247.463913,193.635971 251.922729,193.774246 
	C256.987061,193.931290 262.057098,194.012802 267.123413,193.971848 
	C274.504547,193.912186 281.854065,194.849243 289.281342,194.147888 
	C292.101227,193.881622 295.071289,195.993729 298.029724,196.197784 
	C301.362274,196.427643 304.902863,196.235489 308.098297,195.329102 
	C315.131989,193.334030 321.956299,191.986542 328.603394,196.314896 
	C329.013245,196.581802 329.333649,196.986023 329.626160,197.770111 
	C329.335938,198.506882 329.115234,198.799896 328.574463,198.924957 
	C323.750793,195.572739 318.863251,195.140350 313.750732,196.882874 
	C309.928375,198.185654 306.160675,199.648804 301.966492,201.024841 
	C298.798035,202.422729 297.103424,200.263687 295.070862,198.659271 
	C292.643616,195.202744 285.755463,195.073822 281.987610,198.144714 
	C280.772552,199.438995 279.887909,200.593994 278.817017,201.992203 
	C278.083405,199.940582 277.568787,198.501343 276.795349,196.757233 
	C272.063843,196.633118 267.591217,196.813889 262.790039,197.131683 
	C260.545197,199.139374 258.722107,199.538406 256.661224,197.314758 
	C256.197235,196.814163 254.873825,197.110107 253.526001,197.026474 
	C243.484726,195.105530 234.120377,195.724777 224.742096,199.893021 
	C222.945068,198.971863 221.519318,198.016846 220.055222,196.684097 
	C219.649841,195.665375 219.191650,194.430984 218.929260,194.471283 
	C213.988327,195.230225 209.070587,196.140091 203.780090,197.058014 
	C202.233124,198.457382 201.054077,199.817154 199.875107,201.176819 
	C198.337662,199.913040 197.182510,198.963516 195.751556,197.709869 
	C191.061676,197.608276 186.632355,198.124222 182.238632,197.909943 
	C178.970718,197.750580 177.790573,199.282425 177.198898,201.956436 
	C176.878738,203.403397 176.802505,204.918091 176.362259,206.322617 
	C171.272751,222.559784 166.134628,238.781708 161.009415,255.007690 
	C160.825684,255.008133 160.641968,255.008591 160.181641,255.002441 
	C159.925522,254.248962 159.945999,253.502060 159.958893,252.381760 
z"/>
<path fill="#A8EEF1" opacity="1.000000" stroke="none" 
	d="
M336.928040,199.888458 
	C341.762756,197.924728 346.550812,195.831421 351.456665,194.065338 
	C353.245544,193.421387 355.314728,193.556000 357.627991,193.167206 
	C364.089386,193.716751 368.155487,198.555542 368.946228,206.120605 
	C369.083130,207.430145 368.968811,208.765945 368.962646,210.521240 
	C368.215607,210.970245 367.476471,210.987625 366.358795,210.992523 
	C365.980255,210.980026 365.963196,210.963028 365.974701,210.514801 
	C365.998077,209.242310 366.014923,208.418091 366.021057,207.593811 
	C366.090057,198.327347 363.510254,195.288406 354.305878,196.197784 
	C349.108551,196.711273 344.121399,199.351822 338.860870,200.775757 
	C338.097473,200.307648 337.512756,200.098053 336.928040,199.888458 
z"/>
<path fill="#87EDF1" opacity="1.000000" stroke="none" 
	d="
M361.961853,238.528030 
	C361.555054,238.959671 361.157501,238.958832 360.433533,238.510345 
	C360.195648,230.532593 358.690002,223.931381 350.983551,220.263458 
	C349.002289,219.320435 346.889038,217.497665 346.092957,215.562180 
	C345.365051,213.792587 345.763214,211.001251 346.740234,209.265228 
	C347.525299,207.870255 349.918488,207.380325 351.598114,206.488800 
	C352.436310,208.312180 353.292145,210.127762 354.102173,211.963562 
	C354.350403,212.526184 354.473053,213.144196 354.739929,214.022003 
	C356.978302,213.338425 358.983612,212.726044 360.928528,212.448395 
	C358.561951,214.441391 356.255768,216.099655 354.131226,217.627319 
	C356.629761,221.427078 358.790833,224.713623 360.951904,228.000153 
	C361.291656,231.365280 361.631378,234.730408 361.961853,238.528030 
z"/>
<path fill="#A8EEF1" opacity="1.000000" stroke="none" 
	d="
M361.244263,227.741226 
	C358.790833,224.713623 356.629761,221.427078 354.131226,217.627319 
	C356.255768,216.099655 358.561951,214.441391 361.168213,212.154694 
	C362.966583,211.338501 364.464905,211.150757 365.963196,210.963013 
	C365.963196,210.963028 365.980255,210.980026 365.988403,210.988525 
	C362.045624,215.825424 361.313080,221.524521 361.244263,227.741226 
z"/>
<path fill="#E5FBFB" opacity="1.000000" stroke="none" 
	d="
M282.317993,198.005432 
	C285.755463,195.073822 292.643616,195.202744 295.020386,199.054184 
	C294.106720,204.104660 293.196747,208.344223 292.092133,213.490692 
	C295.934662,208.835403 299.151642,204.937973 302.368622,201.040558 
	C306.160675,199.648804 309.928375,198.185654 313.750732,196.882874 
	C318.863251,195.140350 323.750793,195.572739 328.659912,199.321182 
	C331.777039,210.672623 330.190826,211.772446 318.542297,212.488113 
	C317.572052,210.099640 318.681702,205.632401 313.857330,206.758850 
	C309.003326,207.892197 307.617096,214.109711 311.309082,217.441544 
	C312.779541,218.768539 314.484161,219.844269 316.123383,220.974609 
	C321.402863,224.615143 324.975403,229.395386 323.945099,236.016113 
	C323.200897,240.798141 321.295288,245.399445 319.907684,250.081345 
	C313.034882,255.487778 305.592468,259.190094 296.696808,255.955734 
	C293.732056,254.877808 291.268433,252.421570 288.490417,250.041092 
	C290.401398,245.866455 292.397705,242.246140 294.511108,238.413452 
	C295.994904,239.609726 297.301971,240.860291 298.792358,241.828659 
	C303.494232,244.883545 307.717285,244.810410 309.894257,241.465805 
	C312.656555,237.221893 309.300751,234.714539 306.741425,232.214066 
	C302.252258,227.828171 297.628754,223.579300 293.031647,219.305130 
	C292.655640,218.955536 292.051544,218.851303 292.687256,219.129852 
	C289.046600,230.264893 285.481384,241.169159 281.916168,252.073410 
	C277.968628,254.040344 274.206146,256.751862 270.027863,257.790527 
	C264.488983,259.167358 259.210175,257.652710 255.335129,251.923737 
	C255.107086,249.240158 254.862656,247.213348 255.174271,245.276001 
	C257.764313,229.172882 260.456940,213.086273 263.118591,196.994659 
	C267.591217,196.813889 272.063843,196.633118 276.722961,197.136139 
	C273.963165,211.597443 270.863342,225.345627 268.221161,239.181183 
	C267.778381,241.499924 269.319000,244.197418 269.943146,246.719910 
	C271.515228,244.671799 274.042755,242.817307 274.503387,240.543991 
	C277.365997,226.416702 279.765106,212.195480 282.317993,198.005432 
z"/>
<path fill="#E5FBFB" opacity="1.000000" stroke="none" 
	d="
M204.147995,197.018433 
	C209.070587,196.140091 213.988327,195.230225 218.929260,194.471283 
	C219.191650,194.430984 219.649841,195.665375 220.013519,197.090607 
	C217.989914,216.569229 215.969696,235.263626 213.949463,253.958008 
	C209.160248,254.712143 204.371033,255.466293 199.265747,255.690613 
	C198.922699,253.791275 198.895721,252.421768 198.915649,250.717255 
	C198.995224,249.932404 199.027893,249.482544 199.349396,248.778076 
	C200.692810,241.251358 201.747421,233.979263 202.802032,226.707184 
	C202.320801,226.618835 201.839569,226.530487 201.358337,226.442139 
	C198.906403,233.961227 196.454483,241.480301 193.843903,249.293610 
	C192.831177,251.370956 191.977112,253.154099 191.123047,254.937256 
	C188.421249,258.479675 184.994095,257.007904 181.352875,255.733978 
	C182.104385,245.643387 183.180969,236.122421 184.257568,226.601471 
	C183.594513,226.493057 182.931473,226.384644 182.268417,226.276230 
	C180.122971,234.924347 177.977524,243.572449 175.832077,252.220551 
	C175.311371,256.699951 171.454147,255.860260 168.687836,256.538422 
	C166.826782,256.994659 164.817490,256.846252 162.435181,256.966125 
	C161.735794,256.481659 161.475739,255.999451 161.112549,255.262466 
	C166.134628,238.781708 171.272751,222.559784 176.362259,206.322617 
	C176.802505,204.918091 176.878738,203.403397 177.198898,201.956436 
	C177.790573,199.282425 178.970718,197.750580 182.238632,197.909943 
	C186.632355,198.124222 191.061676,197.608276 195.722900,198.078003 
	C195.963913,199.488846 195.957733,200.227432 195.908508,201.362427 
	C194.389984,210.181763 192.914536,218.604721 191.439072,227.027664 
	C192.095596,227.172485 192.752121,227.317322 193.408646,227.462158 
	C195.662582,220.627380 197.916534,213.792618 200.360718,206.677490 
	C201.749985,203.270889 202.948990,200.144669 204.147995,197.018433 
z"/>
<path fill="#E5FBFB" opacity="1.000000" stroke="none" 
	d="
M225.113373,199.859161 
	C234.120377,195.724777 243.484726,195.105530 253.707275,197.329041 
	C258.875885,202.103256 259.241882,207.647232 256.460693,212.674103 
	C253.257690,218.463379 248.804932,223.561203 244.371124,229.682465 
	C244.981644,231.120026 246.159241,233.661652 247.149841,236.274170 
	C249.128769,241.493225 251.005142,246.751129 252.923874,251.992996 
	C249.747238,252.917557 246.608063,254.032516 243.374649,254.668335 
	C242.164810,254.906250 240.735519,254.028152 239.236481,252.996399 
	C238.432068,250.211655 237.797470,248.089401 237.135300,245.721375 
	C237.107727,245.475601 237.027298,244.987579 237.027191,244.699982 
	C236.786667,243.909180 236.546265,243.405991 236.238525,242.499313 
	C235.493668,238.935669 234.816132,235.775497 234.138596,232.615326 
	C233.657242,232.614700 233.175873,232.614090 232.694519,232.613464 
	C232.133484,236.408173 231.572464,240.202881 230.931793,244.382629 
	C230.537842,246.872650 230.223572,248.977615 229.909286,251.082581 
	C227.897110,254.614426 220.546829,257.031036 216.067322,254.903107 
	C216.534775,252.073120 217.111084,249.990982 217.452850,247.871002 
	C220.032303,231.871231 222.565643,215.864044 225.113373,199.859161 
M237.832382,220.439102 
	C240.721252,218.289825 243.790436,216.334885 246.414627,213.900299 
	C247.541809,212.854538 247.745056,210.812897 248.368088,209.223709 
	C246.156357,208.508499 243.974182,207.388260 241.722244,207.223984 
	C240.280716,207.118805 237.804977,208.085739 237.412903,209.162140 
	C236.247070,212.362930 235.813110,215.845154 235.300705,219.248627 
	C235.242538,219.634979 236.503891,220.219986 237.832382,220.439102 
z"/>
<path fill="#E5FBFB" opacity="1.000000" stroke="none" 
	d="
M365.974701,210.514786 
	C364.464905,211.150757 362.966583,211.338501 361.228607,211.819946 
	C358.983612,212.726044 356.978302,213.338425 354.739929,214.022003 
	C354.473053,213.144196 354.350403,212.526184 354.102173,211.963562 
	C353.292145,210.127762 352.436310,208.312180 351.598114,206.488800 
	C349.918488,207.380325 347.525299,207.870255 346.740234,209.265228 
	C345.763214,211.001251 345.365051,213.792587 346.092957,215.562180 
	C346.889038,217.497665 349.002289,219.320435 350.983551,220.263458 
	C358.690002,223.931381 360.195648,230.532593 360.135101,238.497650 
	C357.620697,251.224274 349.417786,258.126617 337.179749,256.761780 
	C332.805603,256.273926 328.770721,252.744370 324.494507,250.048096 
	C326.401459,245.867950 328.394897,242.242859 330.335175,238.714371 
	C333.047424,240.372986 335.530212,242.750610 338.392944,243.368759 
	C340.664276,243.859207 344.174805,242.894394 345.664398,241.246368 
	C346.692749,240.108688 345.888397,236.261475 344.685211,234.421448 
	C343.118439,232.025391 340.281219,230.486862 338.105438,228.456390 
	C334.040466,224.662888 329.025238,221.508209 329.869110,214.638168 
	C330.629578,208.447357 334.872925,204.816193 339.039551,201.034256 
	C344.121399,199.351822 349.108551,196.711273 354.305878,196.197784 
	C363.510254,195.288406 366.090057,198.327347 366.021057,207.593811 
	C366.014923,208.418091 365.998077,209.242310 365.974701,210.514786 
z"/>
<path fill="#87EDF1" opacity="1.000000" stroke="none" 
	d="
M338.860870,200.775757 
	C334.872925,204.816193 330.629578,208.447357 329.869110,214.638168 
	C329.025238,221.508209 334.040466,224.662888 338.105438,228.456390 
	C340.281219,230.486862 343.118439,232.025391 344.685211,234.421448 
	C345.888397,236.261475 346.692749,240.108688 345.664398,241.246368 
	C344.174805,242.894394 340.664276,243.859207 338.392944,243.368759 
	C335.530212,242.750610 333.047424,240.372986 330.335175,238.714371 
	C328.394897,242.242859 326.401459,245.867950 324.276855,249.815002 
	C323.015656,250.102173 321.885620,250.067383 320.331665,250.056976 
	C321.295288,245.399445 323.200897,240.798141 323.945099,236.016113 
	C324.975403,229.395386 321.402863,224.615143 316.123383,220.974609 
	C314.484161,219.844269 312.779541,218.768539 311.309082,217.441544 
	C307.617096,214.109711 309.003326,207.892197 313.857330,206.758850 
	C318.681702,205.632401 317.572052,210.099640 318.542297,212.488113 
	C330.190826,211.772446 331.777039,210.672623 328.979980,199.489136 
	C329.115234,198.799896 329.335938,198.506882 329.797302,198.075562 
	C332.113281,198.601334 334.188568,199.265427 336.595947,199.908997 
	C337.512756,200.098053 338.097473,200.307648 338.860870,200.775757 
M326.816803,233.814438 
	C327.279816,234.799820 327.484619,236.280975 328.252533,236.680954 
	C330.937012,238.079193 333.737823,239.417908 336.652618,240.144043 
	C338.206787,240.531204 340.085724,239.614578 341.818054,239.286438 
	C341.454346,237.602997 341.622589,235.460709 340.634827,234.315506 
	C336.363251,229.363083 331.824677,224.631409 327.205170,219.996872 
	C326.311462,219.100281 324.620911,218.997925 323.297943,218.529205 
	C323.041229,220.011185 322.246765,221.653564 322.631683,222.944168 
	C323.661804,226.397919 325.197723,229.700806 326.816803,233.814438 
z"/>
<path fill="#87EDF1" opacity="1.000000" stroke="none" 
	d="
M282.283813,252.014832 
	C285.481384,241.169159 289.046600,230.264893 292.687256,219.129852 
	C292.051544,218.851303 292.655640,218.955536 293.031647,219.305130 
	C297.628754,223.579300 302.252258,227.828171 306.741425,232.214066 
	C309.300751,234.714539 312.656555,237.221893 309.894257,241.465805 
	C307.717285,244.810410 303.494232,244.883545 298.792358,241.828659 
	C297.301971,240.860291 295.994904,239.609726 294.511108,238.413452 
	C292.397705,242.246140 290.401398,245.866455 288.272919,249.807816 
	C286.310974,250.737991 284.481232,251.347107 282.283813,252.014832 
z"/>
<path fill="#7CEBF0" opacity="1.000000" stroke="none" 
	d="
M224.742096,199.893021 
	C222.565643,215.864044 220.032303,231.871231 217.452850,247.871002 
	C217.111084,249.990982 216.534775,252.073120 215.992950,254.558258 
	C215.372513,254.779755 214.826218,254.615768 214.114685,254.204895 
	C215.969696,235.263626 217.989914,216.569229 220.051849,197.468338 
	C221.519318,198.016846 222.945068,198.971863 224.742096,199.893021 
z"/>
<path fill="#7CEBF0" opacity="1.000000" stroke="none" 
	d="
M253.291046,252.000549 
	C251.005142,246.751129 249.128769,241.493225 247.149841,236.274170 
	C246.159241,233.661652 244.981644,231.120026 244.371124,229.682465 
	C248.804932,223.561203 253.257690,218.463379 256.460693,212.674103 
	C259.241882,207.647232 258.875885,202.103256 254.127319,197.341919 
	C254.873825,197.110107 256.197235,196.814163 256.661224,197.314758 
	C258.722107,199.538406 260.545197,199.139374 262.790039,197.131683 
	C260.456940,213.086273 257.764313,229.172882 255.174271,245.276001 
	C254.862656,247.213348 255.107086,249.240158 255.107483,251.691498 
	C254.633530,252.107712 254.145874,252.057922 253.291046,252.000549 
M253.495712,241.364578 
	C254.308350,236.699173 255.260223,232.050461 255.822601,227.355087 
	C255.943008,226.349838 254.651688,225.175522 254.010712,224.079071 
	C251.769119,226.536407 247.666321,229.043457 247.730316,231.439224 
	C247.822021,234.872421 250.955688,238.224335 253.495712,241.364578 
z"/>
<path fill="#7CEBF0" opacity="1.000000" stroke="none" 
	d="
M176.195496,252.120514 
	C177.977524,243.572449 180.122971,234.924347 182.268417,226.276230 
	C182.931473,226.384644 183.594513,226.493057 184.257568,226.601471 
	C183.180969,236.122421 182.104385,245.643387 180.983398,255.573730 
	C180.418716,254.489227 179.898453,252.995331 179.295029,251.262665 
	C178.393768,251.512283 177.476334,251.766373 176.195496,252.120514 
z"/>
<path fill="#87EDF1" opacity="1.000000" stroke="none" 
	d="
M237.162872,245.967133 
	C237.797470,248.089401 238.432068,250.211655 239.080399,252.729675 
	C236.667404,250.866440 234.755920,246.619019 230.267853,251.006897 
	C230.223572,248.977615 230.537842,246.872650 231.311066,244.342087 
	C233.281967,243.578583 234.793915,243.240692 236.305862,242.902786 
	C236.546265,243.405991 236.786667,243.909180 236.852051,244.799561 
	C236.838989,245.446869 237.000931,245.707001 237.162872,245.967133 
z"/>
<path fill="#87EDF1" opacity="1.000000" stroke="none" 
	d="
M199.060577,249.032700 
	C199.027893,249.482544 198.995224,249.932404 198.723663,250.820862 
	C198.251877,251.453003 198.093552,251.695328 198.009827,251.986435 
	C195.951614,252.977219 193.893387,253.968002 191.479095,254.948029 
	C191.977112,253.154099 192.831177,251.370956 194.178513,249.263794 
	C196.134720,248.970764 197.597641,249.001724 199.060577,249.032700 
z"/>
<path fill="#7CEBF0" opacity="1.000000" stroke="none" 
	d="
M198.007996,252.349426 
	C198.093552,251.695328 198.251877,251.453003 198.676773,251.155853 
	C198.895721,252.421768 198.922699,253.791275 198.943054,255.572311 
	C198.626343,254.893372 198.316269,253.802902 198.007996,252.349426 
z"/>
<path fill="#7CEBF0" opacity="1.000000" stroke="none" 
	d="
M281.987610,198.144714 
	C279.765106,212.195480 277.365997,226.416702 274.503387,240.543991 
	C274.042755,242.817307 271.515228,244.671799 269.943146,246.719910 
	C269.319000,244.197418 267.778381,241.499924 268.221161,239.181183 
	C270.863342,225.345627 273.963165,211.597443 276.981812,197.441010 
	C277.568787,198.501343 278.083405,199.940582 278.817017,201.992203 
	C279.887909,200.593994 280.772552,199.438995 281.987610,198.144714 
z"/>
<path fill="#7CEBF0" opacity="1.000000" stroke="none" 
	d="
M301.966492,201.024841 
	C299.151642,204.937973 295.934662,208.835403 292.092133,213.490692 
	C293.196747,208.344223 294.106720,204.104660 295.067169,199.470184 
	C297.103424,200.263687 298.798035,202.422729 301.966492,201.024841 
z"/>
<path fill="#87EDF1" opacity="1.000000" stroke="none" 
	d="
M195.951538,200.966019 
	C195.957733,200.227432 195.963913,199.488846 195.998734,198.382126 
	C197.182510,198.963516 198.337662,199.913040 199.875107,201.176819 
	C201.054077,199.817154 202.233124,198.457382 203.780090,197.058014 
	C202.948990,200.144669 201.749985,203.270889 199.953735,206.680389 
	C198.221512,204.964432 197.086533,202.965225 195.951538,200.966019 
z"/>
<path fill="#7CEBF0" opacity="1.000000" stroke="none" 
	d="
M195.908493,201.362427 
	C197.086533,202.965225 198.221512,204.964432 199.763489,206.960754 
	C197.916534,213.792618 195.662582,220.627380 193.408646,227.462158 
	C192.752121,227.317322 192.095596,227.172485 191.439072,227.027664 
	C192.914536,218.604721 194.389984,210.181763 195.908493,201.362427 
z"/>
<path fill="#7CEBF0" opacity="1.000000" stroke="none" 
	d="
M199.349396,248.778076 
	C197.597641,249.001724 196.134720,248.970764 194.337158,248.969589 
	C196.454483,241.480301 198.906403,233.961227 201.358337,226.442139 
	C201.839569,226.530487 202.320801,226.618835 202.802032,226.707184 
	C201.747421,233.979263 200.692810,241.251358 199.349396,248.778076 
z"/>
<path fill="#7CEBF0" opacity="1.000000" stroke="none" 
	d="
M237.492874,220.575989 
	C236.503891,220.219986 235.242538,219.634979 235.300705,219.248627 
	C235.813110,215.845154 236.247070,212.362930 237.412903,209.162140 
	C237.804977,208.085739 240.280716,207.118805 241.722244,207.223984 
	C243.974182,207.388260 246.156357,208.508499 248.368103,209.223709 
	C247.745056,210.812897 247.541809,212.854538 246.414627,213.900299 
	C243.790436,216.334885 240.721252,218.289825 237.492874,220.575989 
z"/>
<path fill="#7CEBF0" opacity="1.000000" stroke="none" 
	d="
M236.238525,242.499313 
	C234.793915,243.240692 233.281967,243.578583 231.390732,243.957031 
	C231.572464,240.202881 232.133484,236.408173 232.694519,232.613464 
	C233.175873,232.614090 233.657242,232.614700 234.138596,232.615326 
	C234.816132,235.775497 235.493668,238.935669 236.238525,242.499313 
z"/>
<path fill="#7CEBF0" opacity="1.000000" stroke="none" 
	d="
M237.135300,245.721375 
	C237.000931,245.707001 236.838989,245.446869 236.852173,245.087158 
	C237.027298,244.987579 237.107727,245.475601 237.135300,245.721375 
z"/>
<path fill="#A8EEF1" opacity="1.000000" stroke="none" 
	d="
M326.674744,233.439041 
	C325.197723,229.700806 323.661804,226.397919 322.631683,222.944168 
	C322.246765,221.653564 323.041229,220.011185 323.297943,218.529205 
	C324.620911,218.997925 326.311462,219.100281 327.205170,219.996872 
	C331.824677,224.631409 336.363251,229.363083 340.634827,234.315506 
	C341.622589,235.460709 341.454346,237.602997 341.818054,239.286438 
	C340.085724,239.614578 338.206787,240.531204 336.652618,240.144043 
	C333.737823,239.417908 330.937012,238.079193 328.252533,236.680954 
	C327.484619,236.280975 327.279816,234.799820 326.674744,233.439041 
z"/>
<path fill="#87EDF1" opacity="1.000000" stroke="none" 
	d="
M253.143143,241.487762 
	C250.955688,238.224335 247.822021,234.872421 247.730316,231.439224 
	C247.666321,229.043457 251.769119,226.536407 254.010712,224.079071 
	C254.651688,225.175522 255.943008,226.349838 255.822601,227.355087 
	C255.260223,232.050461 254.308350,236.699173 253.143143,241.487762 
z"/>
</svg>